<mxfile host="app.diagrams.net" agent="Mozilla/5.0 (Windows NT 10.0; Win64; x64) AppleWebKit/537.36 (KHTML, like Gecko) Chrome/135.0.0.0 Safari/537.36" version="26.2.14">
  <diagram id="C5RBs43oDa-KdzZeNtuy" name="Page-1">
    <mxGraphModel dx="1426" dy="777" grid="1" gridSize="10" guides="1" tooltips="1" connect="1" arrows="1" fold="1" page="1" pageScale="1" pageWidth="827" pageHeight="1169" math="0" shadow="0">
      <root>
        <mxCell id="WIyWlLk6GJQsqaUBKTNV-0" />
        <mxCell id="WIyWlLk6GJQsqaUBKTNV-1" parent="WIyWlLk6GJQsqaUBKTNV-0" />
        <UserObject label="" plantUmlData="{&#xa;  &quot;data&quot;: &quot;@startuml\ntitle Class Diagram - Full System (Nile &amp; Bean)\n\n&#39;=============================\n&#39;== Users\n&#39;=============================\nclass User {\n  - id: int\n  - name: string\n  - email: string\n  - password: string\n  + login()\n  + register()\n}\n\nclass Customer {\n  + placeOrder()\n  + browseMenu()\n  + leaveReview()\n  + manageAccount()\n}\n\nclass Admin {\n  + addProduct()\n  + updateProduct()\n  + removeProduct()\n  + manageUsers()\n  + viewOrders()\n  + viewReviews()\n}\n\nUser &lt;|-- Customer\nUser &lt;|-- Admin\n\n&#39;=============================\n&#39;== Product &amp; Category\n&#39;=============================\nclass Product {\n  - id: int\n  - name: string\n  - description: string\n  - price: float\n  - stock: int\n  - categoryId: int\n}\n\nclass Category {\n  - id: int\n  - name: string\n}\n\nCategory \&quot;1\&quot; --&gt; \&quot;0..*\&quot; Product\n\n&#39;=============================\n&#39;== Cart &amp; Order\n&#39;=============================\nclass Cart {\n  - id: int\n  - customerId: int\n  - items: List&lt;CartItem&gt;\n  + addItem()\n  + removeItem()\n  + clearCart()\n}\n\nclass CartItem {\n  - productId: int\n  - quantity: int\n}\n\nclass Order {\n  - id: int\n  - customerId: int\n  - items: List&lt;OrderItem&gt;\n  - total: float\n  - status: string\n  + calculateTotal()\n  + updateStatus()\n}\n\nclass OrderItem {\n  - productId: int\n  - quantity: int\n  - price: float\n}\n\nCustomer \&quot;1\&quot; --&gt; \&quot;1\&quot; Cart\nCart --&gt; \&quot;0..*\&quot; CartItem\nOrder --&gt; \&quot;1..*\&quot; OrderItem\nCustomer \&quot;1\&quot; --&gt; \&quot;0..*\&quot; Order\n\n&#39;=============================\n&#39;== Payment\n&#39;=============================\nclass Payment {\n  - id: int\n  - orderId: int\n  - amount: float\n  - status: string\n  - paymentMethod: string\n  + processPayment()\n}\n\nOrder \&quot;1\&quot; --&gt; \&quot;1\&quot; Payment\n\n&#39;=============================\n&#39;== Review\n&#39;=============================\nclass Review {\n  - id: int\n  - customerId: int\n  - productId: int\n  - rating: int\n  - comment: string\n  - date: Date\n  + submitReview()\n}\n\nCustomer \&quot;1\&quot; --&gt; \&quot;0..*\&quot; Review\nProduct \&quot;1\&quot; --&gt; \&quot;0..*\&quot; Review\n\n@enduml\n&quot;,&#xa;  &quot;format&quot;: &quot;svg&quot;&#xa;}" id="Rmt2ujwFbmPXd42U4XCV-0">
          <mxCell style="shape=image;noLabel=1;verticalAlign=top;aspect=fixed;imageAspect=0;image=data:image/svg+xml,PHN2ZyB4bWxucz0iaHR0cDovL3d3dy53My5vcmcvMjAwMC9zdmciIHhtbG5zOnhsaW5rPSJodHRwOi8vd3d3LnczLm9yZy8xOTk5L3hsaW5rIiBjb250ZW50U3R5bGVUeXBlPSJ0ZXh0L2NzcyIgZGF0YS1kaWFncmFtLXR5cGU9IkNMQVNTIiBoZWlnaHQ9Ijc5NnB4IiBwcmVzZXJ2ZUFzcGVjdFJhdGlvPSJub25lIiBzdHlsZT0id2lkdGg6Njk5cHg7aGVpZ2h0Ojc5NnB4O2JhY2tncm91bmQ6I0ZGRkZGRjsiIHZlcnNpb249IjEuMSIgdmlld0JveD0iMCAwIDY5OSA3OTYiIHdpZHRoPSI2OTlweCIgem9vbUFuZFBhbj0ibWFnbmlmeSI+PHRpdGxlPkNsYXNzIERpYWdyYW0gLSBGdWxsIFN5c3RlbSAoTmlsZSAmYW1wOyBCZWFuKTwvdGl0bGU+PGRlZnMvPjxnPjx0ZXh0IGZpbGw9IiMwMDAwMDAiIGZvbnQtZmFtaWx5PSJzYW5zLXNlcmlmIiBmb250LXNpemU9IjE0IiBmb250LXdlaWdodD0iYm9sZCIgbGVuZ3RoQWRqdXN0PSJzcGFjaW5nIiB0ZXh0TGVuZ3RoPSIyODciIHg9IjE5OSIgeT0iMjMuMjM0NCI+Q2xhc3MgRGlhZ3JhbSAtIEZ1bGwgU3lzdGVtIChOaWxlICZhbXA7IEJlYW4pPC90ZXh0PjwhLS1jbGFzcyBVc2VyLS0+PGcgY2xhc3M9ImVudGl0eSIgZGF0YS1lbnRpdHk9IlVzZXIiIGRhdGEtc291cmNlLWxpbmU9IjYiIGRhdGEtdWlkPSJlbnQwMDAyIiBpZD0iZW50aXR5X1VzZXIiPjxyZWN0IGZpbGw9IiNGMUYxRjEiIGhlaWdodD0iMTM3LjkwNjMiIHJ4PSIyLjUiIHJ5PSIyLjUiIHN0eWxlPSJzdHJva2U6IzE4MTgxODtzdHJva2Utd2lkdGg6MC41OyIgd2lkdGg9IjEzOCIgeD0iMjgwLjUiIHk9IjQyLjk4NDQiLz48ZWxsaXBzZSBjeD0iMzMxLjI1IiBjeT0iNTguOTg0NCIgZmlsbD0iI0FERDFCMiIgcng9IjExIiByeT0iMTEiIHN0eWxlPSJzdHJva2U6IzE4MTgxODtzdHJva2Utd2lkdGg6MTsiLz48cGF0aCBkPSJNMzI4Ljg3NSw2My4yMzQ0IEwzMjguODc1LDY0Ljk4NDQgTDMzMy44MTI1LDY0Ljk4NDQgTDMzMy44MTI1LDYzLjIzNDQgTDMyOC44NzUsNjMuMjM0NCBaIE0zMjkuNTYyNSw2My45MjE5IFEzMjkuNTYyNSw2My45MjE5IDMyOS41NjI1LDU0LjczNDQgTDMyNy44MTI1LDU0LjczNDQgUTMyNy44MTI1LDU0LjczNDQgMzI3LjgxMjUsNjMuOTIxOSBMMzI5LjU2MjUsNjMuOTIxOSBaIE0zMzMuMTI1LDYzLjkyMTkgTDMzNC44NzUsNjMuOTIxOSBRMzM0Ljg3NSw2My45MjE5IDMzNC44NzUsNjEuMTA5NCBMMzMzLjEyNSw2MS4xMDk0IFEzMzMuMTI1LDYxLjEwOTQgMzMzLjEyNSw2My45MjE5IFogTTMzMy4xMjUsNTQuNzM0NCBRMzMzLjEyNSw1NC43MzQ0IDMzMy4xMjUsNTcuNTQ2OSBMMzM0Ljg3NSw1Ny41NDY5IFEzMzQuODc1LDU3LjU0NjkgMzM0Ljg3NSw1NC43MzQ0IEwzMzMuMTI1LDU0LjczNDQgWiBNMzI4Ljg3NSw1NS40MjE5IEwzMzMuODEyNSw1NS40MjE5IEwzMzMuODEyNSw1My42NzE5IEwzMjguODc1LDUzLjY3MTkgTDMyOC44NzUsNTUuNDIxOSBaICIgZmlsbD0iIzAwMDAwMCIvPjx0ZXh0IGZpbGw9IiMwMDAwMDAiIGZvbnQtZmFtaWx5PSJzYW5zLXNlcmlmIiBmb250LXNpemU9IjE0IiBsZW5ndGhBZGp1c3Q9InNwYWNpbmciIHRleHRMZW5ndGg9IjI4IiB4PSIzNTEuNzUiIHk9IjY0LjcyNjYiPlVzZXI8L3RleHQ+PGxpbmUgc3R5bGU9InN0cm9rZTojMTgxODE4O3N0cm9rZS13aWR0aDowLjU7IiB4MT0iMjgxLjUiIHgyPSI0MTcuNSIgeTE9Ijc0Ljk4NDQiIHkyPSI3NC45ODQ0Ii8+PHJlY3QgZmlsbD0ibm9uZSIgaGVpZ2h0PSI2IiBzdHlsZT0ic3Ryb2tlOiNDODI5MzA7c3Ryb2tlLXdpZHRoOjE7IiB3aWR0aD0iNiIgeD0iMjg4LjUiIHk9Ijg0Ljk3NjYiLz48dGV4dCBmaWxsPSIjMDAwMDAwIiBmb250LWZhbWlseT0ic2Fucy1zZXJpZiIgZm9udC1zaXplPSIxNCIgbGVuZ3RoQWRqdXN0PSJzcGFjaW5nIiB0ZXh0TGVuZ3RoPSI0OSIgeD0iMzAwLjUiIHk9IjkyLjIxODgiPmlkOiBpbnQ8L3RleHQ+PHJlY3QgZmlsbD0ibm9uZSIgaGVpZ2h0PSI2IiBzdHlsZT0ic3Ryb2tlOiNDODI5MzA7c3Ryb2tlLXdpZHRoOjE7IiB3aWR0aD0iNiIgeD0iMjg4LjUiIHk9Ijk5Ljk2MDkiLz48dGV4dCBmaWxsPSIjMDAwMDAwIiBmb250LWZhbWlseT0ic2Fucy1zZXJpZiIgZm9udC1zaXplPSIxNCIgbGVuZ3RoQWRqdXN0PSJzcGFjaW5nIiB0ZXh0TGVuZ3RoPSI4NCIgeD0iMzAwLjUiIHk9IjEwNy4yMDMxIj5uYW1lOiBzdHJpbmc8L3RleHQ+PHJlY3QgZmlsbD0ibm9uZSIgaGVpZ2h0PSI2IiBzdHlsZT0ic3Ryb2tlOiNDODI5MzA7c3Ryb2tlLXdpZHRoOjE7IiB3aWR0aD0iNiIgeD0iMjg4LjUiIHk9IjExNC45NDUzIi8+PHRleHQgZmlsbD0iIzAwMDAwMCIgZm9udC1mYW1pbHk9InNhbnMtc2VyaWYiIGZvbnQtc2l6ZT0iMTQiIGxlbmd0aEFkanVzdD0ic3BhY2luZyIgdGV4dExlbmd0aD0iOTEiIHg9IjMwMC41IiB5PSIxMjIuMTg3NSI+ZW1haWw6IHN0cmluZzwvdGV4dD48cmVjdCBmaWxsPSJub25lIiBoZWlnaHQ9IjYiIHN0eWxlPSJzdHJva2U6I0M4MjkzMDtzdHJva2Utd2lkdGg6MTsiIHdpZHRoPSI2IiB4PSIyODguNSIgeT0iMTI5LjkyOTciLz48dGV4dCBmaWxsPSIjMDAwMDAwIiBmb250LWZhbWlseT0ic2Fucy1zZXJpZiIgZm9udC1zaXplPSIxNCIgbGVuZ3RoQWRqdXN0PSJzcGFjaW5nIiB0ZXh0TGVuZ3RoPSIxMTIiIHg9IjMwMC41IiB5PSIxMzcuMTcxOSI+cGFzc3dvcmQ6IHN0cmluZzwvdGV4dD48bGluZSBzdHlsZT0ic3Ryb2tlOiMxODE4MTg7c3Ryb2tlLXdpZHRoOjAuNTsiIHgxPSIyODEuNSIgeDI9IjQxNy41IiB5MT0iMTQyLjkyMTkiIHkyPSIxNDIuOTIxOSIvPjxlbGxpcHNlIGN4PSIyOTEuNSIgY3k9IjE1NS45MTQxIiBmaWxsPSIjODRCRTg0IiByeD0iMyIgcnk9IjMiIHN0eWxlPSJzdHJva2U6IzAzODA0ODtzdHJva2Utd2lkdGg6MTsiLz48dGV4dCBmaWxsPSIjMDAwMDAwIiBmb250LWZhbWlseT0ic2Fucy1zZXJpZiIgZm9udC1zaXplPSIxNCIgbGVuZ3RoQWRqdXN0PSJzcGFjaW5nIiB0ZXh0TGVuZ3RoPSI0OSIgeD0iMzAwLjUiIHk9IjE2MC4xNTYzIj5sb2dpbigpPC90ZXh0PjxlbGxpcHNlIGN4PSIyOTEuNSIgY3k9IjE3MC44OTg0IiBmaWxsPSIjODRCRTg0IiByeD0iMyIgcnk9IjMiIHN0eWxlPSJzdHJva2U6IzAzODA0ODtzdHJva2Utd2lkdGg6MTsiLz48dGV4dCBmaWxsPSIjMDAwMDAwIiBmb250LWZhbWlseT0ic2Fucy1zZXJpZiIgZm9udC1zaXplPSIxNCIgbGVuZ3RoQWRqdXN0PSJzcGFjaW5nIiB0ZXh0TGVuZ3RoPSI3MCIgeD0iMzAwLjUiIHk9IjE3NS4xNDA2Ij5yZWdpc3RlcigpPC90ZXh0PjwvZz48IS0tY2xhc3MgQ3VzdG9tZXItLT48ZyBjbGFzcz0iZW50aXR5IiBkYXRhLWVudGl0eT0iQ3VzdG9tZXIiIGRhdGEtc291cmNlLWxpbmU9IjE1IiBkYXRhLXVpZD0iZW50MDAwMyIgaWQ9ImVudGl0eV9DdXN0b21lciI+PHJlY3QgZmlsbD0iI0YxRjFGMSIgaGVpZ2h0PSIxMDcuOTM3NSIgcng9IjIuNSIgcnk9IjIuNSIgc3R5bGU9InN0cm9rZTojMTgxODE4O3N0cm9rZS13aWR0aDowLjU7IiB3aWR0aD0iMTMxIiB4PSIyMDEiIHk9IjI1NS45ODQ0Ii8+PGVsbGlwc2UgY3g9IjIzNS4zNSIgY3k9IjI3MS45ODQ0IiBmaWxsPSIjQUREMUIyIiByeD0iMTEiIHJ5PSIxMSIgc3R5bGU9InN0cm9rZTojMTgxODE4O3N0cm9rZS13aWR0aDoxOyIvPjxwYXRoIGQ9Ik0yMzIuOTc1LDI3Ni4yMzQ0IEwyMzIuOTc1LDI3Ny45ODQ0IEwyMzcuOTEyNSwyNzcuOTg0NCBMMjM3LjkxMjUsMjc2LjIzNDQgTDIzMi45NzUsMjc2LjIzNDQgWiBNMjMzLjY2MjUsMjc2LjkyMTkgUTIzMy42NjI1LDI3Ni45MjE5IDIzMy42NjI1LDI2Ny43MzQ0IEwyMzEuOTEyNSwyNjcuNzM0NCBRMjMxLjkxMjUsMjY3LjczNDQgMjMxLjkxMjUsMjc2LjkyMTkgTDIzMy42NjI1LDI3Ni45MjE5IFogTTIzNy4yMjUsMjc2LjkyMTkgTDIzOC45NzUsMjc2LjkyMTkgUTIzOC45NzUsMjc2LjkyMTkgMjM4Ljk3NSwyNzQuMTA5NCBMMjM3LjIyNSwyNzQuMTA5NCBRMjM3LjIyNSwyNzQuMTA5NCAyMzcuMjI1LDI3Ni45MjE5IFogTTIzNy4yMjUsMjY3LjczNDQgUTIzNy4yMjUsMjY3LjczNDQgMjM3LjIyNSwyNzAuNTQ2OSBMMjM4Ljk3NSwyNzAuNTQ2OSBRMjM4Ljk3NSwyNzAuNTQ2OSAyMzguOTc1LDI2Ny43MzQ0IEwyMzcuMjI1LDI2Ny43MzQ0IFogTTIzMi45NzUsMjY4LjQyMTkgTDIzNy45MTI1LDI2OC40MjE5IEwyMzcuOTEyNSwyNjYuNjcxOSBMMjMyLjk3NSwyNjYuNjcxOSBMMjMyLjk3NSwyNjguNDIxOSBaICIgZmlsbD0iIzAwMDAwMCIvPjx0ZXh0IGZpbGw9IiMwMDAwMDAiIGZvbnQtZmFtaWx5PSJzYW5zLXNlcmlmIiBmb250LXNpemU9IjE0IiBsZW5ndGhBZGp1c3Q9InNwYWNpbmciIHRleHRMZW5ndGg9IjU2IiB4PSIyNTMuNjUiIHk9IjI3Ny43MjY2Ij5DdXN0b21lcjwvdGV4dD48bGluZSBzdHlsZT0ic3Ryb2tlOiMxODE4MTg7c3Ryb2tlLXdpZHRoOjAuNTsiIHgxPSIyMDIiIHgyPSIzMzEiIHkxPSIyODcuOTg0NCIgeTI9IjI4Ny45ODQ0Ii8+PGxpbmUgc3R5bGU9InN0cm9rZTojMTgxODE4O3N0cm9rZS13aWR0aDowLjU7IiB4MT0iMjAyIiB4Mj0iMzMxIiB5MT0iMjk1Ljk4NDQiIHkyPSIyOTUuOTg0NCIvPjxlbGxpcHNlIGN4PSIyMTIiIGN5PSIzMDguOTc2NiIgZmlsbD0iIzg0QkU4NCIgcng9IjMiIHJ5PSIzIiBzdHlsZT0ic3Ryb2tlOiMwMzgwNDg7c3Ryb2tlLXdpZHRoOjE7Ii8+PHRleHQgZmlsbD0iIzAwMDAwMCIgZm9udC1mYW1pbHk9InNhbnMtc2VyaWYiIGZvbnQtc2l6ZT0iMTQiIGxlbmd0aEFkanVzdD0ic3BhY2luZyIgdGV4dExlbmd0aD0iODQiIHg9IjIyMSIgeT0iMzEzLjIxODgiPnBsYWNlT3JkZXIoKTwvdGV4dD48ZWxsaXBzZSBjeD0iMjEyIiBjeT0iMzIzLjk2MDkiIGZpbGw9IiM4NEJFODQiIHJ4PSIzIiByeT0iMyIgc3R5bGU9InN0cm9rZTojMDM4MDQ4O3N0cm9rZS13aWR0aDoxOyIvPjx0ZXh0IGZpbGw9IiMwMDAwMDAiIGZvbnQtZmFtaWx5PSJzYW5zLXNlcmlmIiBmb250LXNpemU9IjE0IiBsZW5ndGhBZGp1c3Q9InNwYWNpbmciIHRleHRMZW5ndGg9Ijg0IiB4PSIyMjEiIHk9IjMyOC4yMDMxIj5icm93c2VNZW51KCk8L3RleHQ+PGVsbGlwc2UgY3g9IjIxMiIgY3k9IjMzOC45NDUzIiBmaWxsPSIjODRCRTg0IiByeD0iMyIgcnk9IjMiIHN0eWxlPSJzdHJva2U6IzAzODA0ODtzdHJva2Utd2lkdGg6MTsiLz48dGV4dCBmaWxsPSIjMDAwMDAwIiBmb250LWZhbWlseT0ic2Fucy1zZXJpZiIgZm9udC1zaXplPSIxNCIgbGVuZ3RoQWRqdXN0PSJzcGFjaW5nIiB0ZXh0TGVuZ3RoPSI5MSIgeD0iMjIxIiB5PSIzNDMuMTg3NSI+bGVhdmVSZXZpZXcoKTwvdGV4dD48ZWxsaXBzZSBjeD0iMjEyIiBjeT0iMzUzLjkyOTciIGZpbGw9IiM4NEJFODQiIHJ4PSIzIiByeT0iMyIgc3R5bGU9InN0cm9rZTojMDM4MDQ4O3N0cm9rZS13aWR0aDoxOyIvPjx0ZXh0IGZpbGw9IiMwMDAwMDAiIGZvbnQtZmFtaWx5PSJzYW5zLXNlcmlmIiBmb250LXNpemU9IjE0IiBsZW5ndGhBZGp1c3Q9InNwYWNpbmciIHRleHRMZW5ndGg9IjEwNSIgeD0iMjIxIiB5PSIzNTguMTcxOSI+bWFuYWdlQWNjb3VudCgpPC90ZXh0PjwvZz48IS0tY2xhc3MgQWRtaW4tLT48ZyBjbGFzcz0iZW50aXR5IiBkYXRhLWVudGl0eT0iQWRtaW4iIGRhdGEtc291cmNlLWxpbmU9IjIyIiBkYXRhLXVpZD0iZW50MDAwNCIgaWQ9ImVudGl0eV9BZG1pbiI+PHJlY3QgZmlsbD0iI0YxRjFGMSIgaGVpZ2h0PSIxMzcuOTA2MyIgcng9IjIuNSIgcnk9IjIuNSIgc3R5bGU9InN0cm9rZTojMTgxODE4O3N0cm9rZS13aWR0aDowLjU7IiB3aWR0aD0iMTMxIiB4PSIzNjciIHk9IjI0MC45ODQ0Ii8+PGVsbGlwc2UgY3g9IjQxMC44IiBjeT0iMjU2Ljk4NDQiIGZpbGw9IiNBREQxQjIiIHJ4PSIxMSIgcnk9IjExIiBzdHlsZT0ic3Ryb2tlOiMxODE4MTg7c3Ryb2tlLXdpZHRoOjE7Ii8+PHBhdGggZD0iTTQwOC40MjUsMjYxLjIzNDQgTDQwOC40MjUsMjYyLjk4NDQgTDQxMy4zNjI1LDI2Mi45ODQ0IEw0MTMuMzYyNSwyNjEuMjM0NCBMNDA4LjQyNSwyNjEuMjM0NCBaIE00MDkuMTEyNSwyNjEuOTIxOSBRNDA5LjExMjUsMjYxLjkyMTkgNDA5LjExMjUsMjUyLjczNDQgTDQwNy4zNjI1LDI1Mi43MzQ0IFE0MDcuMzYyNSwyNTIuNzM0NCA0MDcuMzYyNSwyNjEuOTIxOSBMNDA5LjExMjUsMjYxLjkyMTkgWiBNNDEyLjY3NSwyNjEuOTIxOSBMNDE0LjQyNSwyNjEuOTIxOSBRNDE0LjQyNSwyNjEuOTIxOSA0MTQuNDI1LDI1OS4xMDk0IEw0MTIuNjc1LDI1OS4xMDk0IFE0MTIuNjc1LDI1OS4xMDk0IDQxMi42NzUsMjYxLjkyMTkgWiBNNDEyLjY3NSwyNTIuNzM0NCBRNDEyLjY3NSwyNTIuNzM0NCA0MTIuNjc1LDI1NS41NDY5IEw0MTQuNDI1LDI1NS41NDY5IFE0MTQuNDI1LDI1NS41NDY5IDQxNC40MjUsMjUyLjczNDQgTDQxMi42NzUsMjUyLjczNDQgWiBNNDA4LjQyNSwyNTMuNDIxOSBMNDEzLjM2MjUsMjUzLjQyMTkgTDQxMy4zNjI1LDI1MS42NzE5IEw0MDguNDI1LDI1MS42NzE5IEw0MDguNDI1LDI1My40MjE5IFogIiBmaWxsPSIjMDAwMDAwIi8+PHRleHQgZmlsbD0iIzAwMDAwMCIgZm9udC1mYW1pbHk9InNhbnMtc2VyaWYiIGZvbnQtc2l6ZT0iMTQiIGxlbmd0aEFkanVzdD0ic3BhY2luZyIgdGV4dExlbmd0aD0iMzUiIHg9IjQzMS4yIiB5PSIyNjIuNzI2NiI+QWRtaW48L3RleHQ+PGxpbmUgc3R5bGU9InN0cm9rZTojMTgxODE4O3N0cm9rZS13aWR0aDowLjU7IiB4MT0iMzY4IiB4Mj0iNDk3IiB5MT0iMjcyLjk4NDQiIHkyPSIyNzIuOTg0NCIvPjxsaW5lIHN0eWxlPSJzdHJva2U6IzE4MTgxODtzdHJva2Utd2lkdGg6MC41OyIgeDE9IjM2OCIgeDI9IjQ5NyIgeTE9IjI4MC45ODQ0IiB5Mj0iMjgwLjk4NDQiLz48ZWxsaXBzZSBjeD0iMzc4IiBjeT0iMjkzLjk3NjYiIGZpbGw9IiM4NEJFODQiIHJ4PSIzIiByeT0iMyIgc3R5bGU9InN0cm9rZTojMDM4MDQ4O3N0cm9rZS13aWR0aDoxOyIvPjx0ZXh0IGZpbGw9IiMwMDAwMDAiIGZvbnQtZmFtaWx5PSJzYW5zLXNlcmlmIiBmb250LXNpemU9IjE0IiBsZW5ndGhBZGp1c3Q9InNwYWNpbmciIHRleHRMZW5ndGg9Ijg0IiB4PSIzODciIHk9IjI5OC4yMTg4Ij5hZGRQcm9kdWN0KCk8L3RleHQ+PGVsbGlwc2UgY3g9IjM3OCIgY3k9IjMwOC45NjA5IiBmaWxsPSIjODRCRTg0IiByeD0iMyIgcnk9IjMiIHN0eWxlPSJzdHJva2U6IzAzODA0ODtzdHJva2Utd2lkdGg6MTsiLz48dGV4dCBmaWxsPSIjMDAwMDAwIiBmb250LWZhbWlseT0ic2Fucy1zZXJpZiIgZm9udC1zaXplPSIxNCIgbGVuZ3RoQWRqdXN0PSJzcGFjaW5nIiB0ZXh0TGVuZ3RoPSIxMDUiIHg9IjM4NyIgeT0iMzEzLjIwMzEiPnVwZGF0ZVByb2R1Y3QoKTwvdGV4dD48ZWxsaXBzZSBjeD0iMzc4IiBjeT0iMzIzLjk0NTMiIGZpbGw9IiM4NEJFODQiIHJ4PSIzIiByeT0iMyIgc3R5bGU9InN0cm9rZTojMDM4MDQ4O3N0cm9rZS13aWR0aDoxOyIvPjx0ZXh0IGZpbGw9IiMwMDAwMDAiIGZvbnQtZmFtaWx5PSJzYW5zLXNlcmlmIiBmb250LXNpemU9IjE0IiBsZW5ndGhBZGp1c3Q9InNwYWNpbmciIHRleHRMZW5ndGg9IjEwNSIgeD0iMzg3IiB5PSIzMjguMTg3NSI+cmVtb3ZlUHJvZHVjdCgpPC90ZXh0PjxlbGxpcHNlIGN4PSIzNzgiIGN5PSIzMzguOTI5NyIgZmlsbD0iIzg0QkU4NCIgcng9IjMiIHJ5PSIzIiBzdHlsZT0ic3Ryb2tlOiMwMzgwNDg7c3Ryb2tlLXdpZHRoOjE7Ii8+PHRleHQgZmlsbD0iIzAwMDAwMCIgZm9udC1mYW1pbHk9InNhbnMtc2VyaWYiIGZvbnQtc2l6ZT0iMTQiIGxlbmd0aEFkanVzdD0ic3BhY2luZyIgdGV4dExlbmd0aD0iOTEiIHg9IjM4NyIgeT0iMzQzLjE3MTkiPm1hbmFnZVVzZXJzKCk8L3RleHQ+PGVsbGlwc2UgY3g9IjM3OCIgY3k9IjM1My45MTQxIiBmaWxsPSIjODRCRTg0IiByeD0iMyIgcnk9IjMiIHN0eWxlPSJzdHJva2U6IzAzODA0ODtzdHJva2Utd2lkdGg6MTsiLz48dGV4dCBmaWxsPSIjMDAwMDAwIiBmb250LWZhbWlseT0ic2Fucy1zZXJpZiIgZm9udC1zaXplPSIxNCIgbGVuZ3RoQWRqdXN0PSJzcGFjaW5nIiB0ZXh0TGVuZ3RoPSI4NCIgeD0iMzg3IiB5PSIzNTguMTU2MyI+dmlld09yZGVycygpPC90ZXh0PjxlbGxpcHNlIGN4PSIzNzgiIGN5PSIzNjguODk4NCIgZmlsbD0iIzg0QkU4NCIgcng9IjMiIHJ5PSIzIiBzdHlsZT0ic3Ryb2tlOiMwMzgwNDg7c3Ryb2tlLXdpZHRoOjE7Ii8+PHRleHQgZmlsbD0iIzAwMDAwMCIgZm9udC1mYW1pbHk9InNhbnMtc2VyaWYiIGZvbnQtc2l6ZT0iMTQiIGxlbmd0aEFkanVzdD0ic3BhY2luZyIgdGV4dExlbmd0aD0iOTEiIHg9IjM4NyIgeT0iMzczLjE0MDYiPnZpZXdSZXZpZXdzKCk8L3RleHQ+PC9nPjwhLS1jbGFzcyBQcm9kdWN0LS0+PGcgY2xhc3M9ImVudGl0eSIgZGF0YS1lbnRpdHk9IlByb2R1Y3QiIGRhdGEtc291cmNlLWxpbmU9IjM3IiBkYXRhLXVpZD0iZW50MDAwNyIgaWQ9ImVudGl0eV9Qcm9kdWN0Ij48cmVjdCBmaWxsPSIjRjFGMUYxIiBoZWlnaHQ9IjEzNy45MDYzIiByeD0iMi41IiByeT0iMi41IiBzdHlsZT0ic3Ryb2tlOiMxODE4MTg7c3Ryb2tlLXdpZHRoOjAuNTsiIHdpZHRoPSIxNTkiIHg9IjUzMyIgeT0iMjQwLjk4NDQiLz48ZWxsaXBzZSBjeD0iNTgzLjc1IiBjeT0iMjU2Ljk4NDQiIGZpbGw9IiNBREQxQjIiIHJ4PSIxMSIgcnk9IjExIiBzdHlsZT0ic3Ryb2tlOiMxODE4MTg7c3Ryb2tlLXdpZHRoOjE7Ii8+PHBhdGggZD0iTTU4MS4zNzUsMjYxLjIzNDQgTDU4MS4zNzUsMjYyLjk4NDQgTDU4Ni4zMTI1LDI2Mi45ODQ0IEw1ODYuMzEyNSwyNjEuMjM0NCBMNTgxLjM3NSwyNjEuMjM0NCBaIE01ODIuMDYyNSwyNjEuOTIxOSBRNTgyLjA2MjUsMjYxLjkyMTkgNTgyLjA2MjUsMjUyLjczNDQgTDU4MC4zMTI1LDI1Mi43MzQ0IFE1ODAuMzEyNSwyNTIuNzM0NCA1ODAuMzEyNSwyNjEuOTIxOSBMNTgyLjA2MjUsMjYxLjkyMTkgWiBNNTg1LjYyNSwyNjEuOTIxOSBMNTg3LjM3NSwyNjEuOTIxOSBRNTg3LjM3NSwyNjEuOTIxOSA1ODcuMzc1LDI1OS4xMDk0IEw1ODUuNjI1LDI1OS4xMDk0IFE1ODUuNjI1LDI1OS4xMDk0IDU4NS42MjUsMjYxLjkyMTkgWiBNNTg1LjYyNSwyNTIuNzM0NCBRNTg1LjYyNSwyNTIuNzM0NCA1ODUuNjI1LDI1NS41NDY5IEw1ODcuMzc1LDI1NS41NDY5IFE1ODcuMzc1LDI1NS41NDY5IDU4Ny4zNzUsMjUyLjczNDQgTDU4NS42MjUsMjUyLjczNDQgWiBNNTgxLjM3NSwyNTMuNDIxOSBMNTg2LjMxMjUsMjUzLjQyMTkgTDU4Ni4zMTI1LDI1MS42NzE5IEw1ODEuMzc1LDI1MS42NzE5IEw1ODEuMzc1LDI1My40MjE5IFogIiBmaWxsPSIjMDAwMDAwIi8+PHRleHQgZmlsbD0iIzAwMDAwMCIgZm9udC1mYW1pbHk9InNhbnMtc2VyaWYiIGZvbnQtc2l6ZT0iMTQiIGxlbmd0aEFkanVzdD0ic3BhY2luZyIgdGV4dExlbmd0aD0iNDkiIHg9IjYwNC4yNSIgeT0iMjYyLjcyNjYiPlByb2R1Y3Q8L3RleHQ+PGxpbmUgc3R5bGU9InN0cm9rZTojMTgxODE4O3N0cm9rZS13aWR0aDowLjU7IiB4MT0iNTM0IiB4Mj0iNjkxIiB5MT0iMjcyLjk4NDQiIHkyPSIyNzIuOTg0NCIvPjxyZWN0IGZpbGw9Im5vbmUiIGhlaWdodD0iNiIgc3R5bGU9InN0cm9rZTojQzgyOTMwO3N0cm9rZS13aWR0aDoxOyIgd2lkdGg9IjYiIHg9IjU0MSIgeT0iMjgyLjk3NjYiLz48dGV4dCBmaWxsPSIjMDAwMDAwIiBmb250LWZhbWlseT0ic2Fucy1zZXJpZiIgZm9udC1zaXplPSIxNCIgbGVuZ3RoQWRqdXN0PSJzcGFjaW5nIiB0ZXh0TGVuZ3RoPSI0OSIgeD0iNTUzIiB5PSIyOTAuMjE4OCI+aWQ6IGludDwvdGV4dD48cmVjdCBmaWxsPSJub25lIiBoZWlnaHQ9IjYiIHN0eWxlPSJzdHJva2U6I0M4MjkzMDtzdHJva2Utd2lkdGg6MTsiIHdpZHRoPSI2IiB4PSI1NDEiIHk9IjI5Ny45NjA5Ii8+PHRleHQgZmlsbD0iIzAwMDAwMCIgZm9udC1mYW1pbHk9InNhbnMtc2VyaWYiIGZvbnQtc2l6ZT0iMTQiIGxlbmd0aEFkanVzdD0ic3BhY2luZyIgdGV4dExlbmd0aD0iODQiIHg9IjU1MyIgeT0iMzA1LjIwMzEiPm5hbWU6IHN0cmluZzwvdGV4dD48cmVjdCBmaWxsPSJub25lIiBoZWlnaHQ9IjYiIHN0eWxlPSJzdHJva2U6I0M4MjkzMDtzdHJva2Utd2lkdGg6MTsiIHdpZHRoPSI2IiB4PSI1NDEiIHk9IjMxMi45NDUzIi8+PHRleHQgZmlsbD0iIzAwMDAwMCIgZm9udC1mYW1pbHk9InNhbnMtc2VyaWYiIGZvbnQtc2l6ZT0iMTQiIGxlbmd0aEFkanVzdD0ic3BhY2luZyIgdGV4dExlbmd0aD0iMTMzIiB4PSI1NTMiIHk9IjMyMC4xODc1Ij5kZXNjcmlwdGlvbjogc3RyaW5nPC90ZXh0PjxyZWN0IGZpbGw9Im5vbmUiIGhlaWdodD0iNiIgc3R5bGU9InN0cm9rZTojQzgyOTMwO3N0cm9rZS13aWR0aDoxOyIgd2lkdGg9IjYiIHg9IjU0MSIgeT0iMzI3LjkyOTciLz48dGV4dCBmaWxsPSIjMDAwMDAwIiBmb250LWZhbWlseT0ic2Fucy1zZXJpZiIgZm9udC1zaXplPSIxNCIgbGVuZ3RoQWRqdXN0PSJzcGFjaW5nIiB0ZXh0TGVuZ3RoPSI4NCIgeD0iNTUzIiB5PSIzMzUuMTcxOSI+cHJpY2U6IGZsb2F0PC90ZXh0PjxyZWN0IGZpbGw9Im5vbmUiIGhlaWdodD0iNiIgc3R5bGU9InN0cm9rZTojQzgyOTMwO3N0cm9rZS13aWR0aDoxOyIgd2lkdGg9IjYiIHg9IjU0MSIgeT0iMzQyLjkxNDEiLz48dGV4dCBmaWxsPSIjMDAwMDAwIiBmb250LWZhbWlseT0ic2Fucy1zZXJpZiIgZm9udC1zaXplPSIxNCIgbGVuZ3RoQWRqdXN0PSJzcGFjaW5nIiB0ZXh0TGVuZ3RoPSI3MCIgeD0iNTUzIiB5PSIzNTAuMTU2MyI+c3RvY2s6IGludDwvdGV4dD48cmVjdCBmaWxsPSJub25lIiBoZWlnaHQ9IjYiIHN0eWxlPSJzdHJva2U6I0M4MjkzMDtzdHJva2Utd2lkdGg6MTsiIHdpZHRoPSI2IiB4PSI1NDEiIHk9IjM1Ny44OTg0Ii8+PHRleHQgZmlsbD0iIzAwMDAwMCIgZm9udC1mYW1pbHk9InNhbnMtc2VyaWYiIGZvbnQtc2l6ZT0iMTQiIGxlbmd0aEFkanVzdD0ic3BhY2luZyIgdGV4dExlbmd0aD0iMTA1IiB4PSI1NTMiIHk9IjM2NS4xNDA2Ij5jYXRlZ29yeUlkOiBpbnQ8L3RleHQ+PGxpbmUgc3R5bGU9InN0cm9rZTojMTgxODE4O3N0cm9rZS13aWR0aDowLjU7IiB4MT0iNTM0IiB4Mj0iNjkxIiB5MT0iMzcwLjg5MDYiIHkyPSIzNzAuODkwNiIvPjwvZz48IS0tY2xhc3MgQ2F0ZWdvcnktLT48ZyBjbGFzcz0iZW50aXR5IiBkYXRhLWVudGl0eT0iQ2F0ZWdvcnkiIGRhdGEtc291cmNlLWxpbmU9IjQ2IiBkYXRhLXVpZD0iZW50MDAwOCIgaWQ9ImVudGl0eV9DYXRlZ29yeSI+PHJlY3QgZmlsbD0iI0YxRjFGMSIgaGVpZ2h0PSI3Ny45Njg4IiByeD0iMi41IiByeT0iMi41IiBzdHlsZT0ic3Ryb2tlOiMxODE4MTg7c3Ryb2tlLXdpZHRoOjAuNTsiIHdpZHRoPSIxMTAiIHg9IjU1Ny41IiB5PSI3Mi45ODQ0Ii8+PGVsbGlwc2UgY3g9IjU4Mi40IiBjeT0iODguOTg0NCIgZmlsbD0iI0FERDFCMiIgcng9IjExIiByeT0iMTEiIHN0eWxlPSJzdHJva2U6IzE4MTgxODtzdHJva2Utd2lkdGg6MTsiLz48cGF0aCBkPSJNNTgwLjAyNSw5My4yMzQ0IEw1ODAuMDI1LDk0Ljk4NDQgTDU4NC45NjI1LDk0Ljk4NDQgTDU4NC45NjI1LDkzLjIzNDQgTDU4MC4wMjUsOTMuMjM0NCBaIE01ODAuNzEyNSw5My45MjE5IFE1ODAuNzEyNSw5My45MjE5IDU4MC43MTI1LDg0LjczNDQgTDU3OC45NjI1LDg0LjczNDQgUTU3OC45NjI1LDg0LjczNDQgNTc4Ljk2MjUsOTMuOTIxOSBMNTgwLjcxMjUsOTMuOTIxOSBaIE01ODQuMjc1LDkzLjkyMTkgTDU4Ni4wMjUsOTMuOTIxOSBRNTg2LjAyNSw5My45MjE5IDU4Ni4wMjUsOTEuMTA5NCBMNTg0LjI3NSw5MS4xMDk0IFE1ODQuMjc1LDkxLjEwOTQgNTg0LjI3NSw5My45MjE5IFogTTU4NC4yNzUsODQuNzM0NCBRNTg0LjI3NSw4NC43MzQ0IDU4NC4yNzUsODcuNTQ2OSBMNTg2LjAyNSw4Ny41NDY5IFE1ODYuMDI1LDg3LjU0NjkgNTg2LjAyNSw4NC43MzQ0IEw1ODQuMjc1LDg0LjczNDQgWiBNNTgwLjAyNSw4NS40MjE5IEw1ODQuOTYyNSw4NS40MjE5IEw1ODQuOTYyNSw4My42NzE5IEw1ODAuMDI1LDgzLjY3MTkgTDU4MC4wMjUsODUuNDIxOSBaICIgZmlsbD0iIzAwMDAwMCIvPjx0ZXh0IGZpbGw9IiMwMDAwMDAiIGZvbnQtZmFtaWx5PSJzYW5zLXNlcmlmIiBmb250LXNpemU9IjE0IiBsZW5ndGhBZGp1c3Q9InNwYWNpbmciIHRleHRMZW5ndGg9IjU2IiB4PSI1OTguNiIgeT0iOTQuNzI2NiI+Q2F0ZWdvcnk8L3RleHQ+PGxpbmUgc3R5bGU9InN0cm9rZTojMTgxODE4O3N0cm9rZS13aWR0aDowLjU7IiB4MT0iNTU4LjUiIHgyPSI2NjYuNSIgeTE9IjEwNC45ODQ0IiB5Mj0iMTA0Ljk4NDQiLz48cmVjdCBmaWxsPSJub25lIiBoZWlnaHQ9IjYiIHN0eWxlPSJzdHJva2U6I0M4MjkzMDtzdHJva2Utd2lkdGg6MTsiIHdpZHRoPSI2IiB4PSI1NjUuNSIgeT0iMTE0Ljk3NjYiLz48dGV4dCBmaWxsPSIjMDAwMDAwIiBmb250LWZhbWlseT0ic2Fucy1zZXJpZiIgZm9udC1zaXplPSIxNCIgbGVuZ3RoQWRqdXN0PSJzcGFjaW5nIiB0ZXh0TGVuZ3RoPSI0OSIgeD0iNTc3LjUiIHk9IjEyMi4yMTg4Ij5pZDogaW50PC90ZXh0PjxyZWN0IGZpbGw9Im5vbmUiIGhlaWdodD0iNiIgc3R5bGU9InN0cm9rZTojQzgyOTMwO3N0cm9rZS13aWR0aDoxOyIgd2lkdGg9IjYiIHg9IjU2NS41IiB5PSIxMjkuOTYwOSIvPjx0ZXh0IGZpbGw9IiMwMDAwMDAiIGZvbnQtZmFtaWx5PSJzYW5zLXNlcmlmIiBmb250LXNpemU9IjE0IiBsZW5ndGhBZGp1c3Q9InNwYWNpbmciIHRleHRMZW5ndGg9Ijg0IiB4PSI1NzcuNSIgeT0iMTM3LjIwMzEiPm5hbWU6IHN0cmluZzwvdGV4dD48bGluZSBzdHlsZT0ic3Ryb2tlOiMxODE4MTg7c3Ryb2tlLXdpZHRoOjAuNTsiIHgxPSI1NTguNSIgeDI9IjY2Ni41IiB5MT0iMTQyLjk1MzEiIHkyPSIxNDIuOTUzMSIvPjwvZz48IS0tY2xhc3MgQ2FydC0tPjxnIGNsYXNzPSJlbnRpdHkiIGRhdGEtZW50aXR5PSJDYXJ0IiBkYXRhLXNvdXJjZS1saW5lPSI1NiIgZGF0YS11aWQ9ImVudDAwMTAiIGlkPSJlbnRpdHlfQ2FydCI+PHJlY3QgZmlsbD0iI0YxRjFGMSIgaGVpZ2h0PSIxMzcuOTA2MyIgcng9IjIuNSIgcnk9IjIuNSIgc3R5bGU9InN0cm9rZTojMTgxODE4O3N0cm9rZS13aWR0aDowLjU7IiB3aWR0aD0iMTczIiB4PSI3IiB5PSI0NDYuNDg0NCIvPjxlbGxpcHNlIGN4PSI3NS4yNSIgY3k9IjQ2Mi40ODQ0IiBmaWxsPSIjQUREMUIyIiByeD0iMTEiIHJ5PSIxMSIgc3R5bGU9InN0cm9rZTojMTgxODE4O3N0cm9rZS13aWR0aDoxOyIvPjxwYXRoIGQ9Ik03Mi44NzUsNDY2LjczNDQgTDcyLjg3NSw0NjguNDg0NCBMNzcuODEyNSw0NjguNDg0NCBMNzcuODEyNSw0NjYuNzM0NCBMNzIuODc1LDQ2Ni43MzQ0IFogTTczLjU2MjUsNDY3LjQyMTkgUTczLjU2MjUsNDY3LjQyMTkgNzMuNTYyNSw0NTguMjM0NCBMNzEuODEyNSw0NTguMjM0NCBRNzEuODEyNSw0NTguMjM0NCA3MS44MTI1LDQ2Ny40MjE5IEw3My41NjI1LDQ2Ny40MjE5IFogTTc3LjEyNSw0NjcuNDIxOSBMNzguODc1LDQ2Ny40MjE5IFE3OC44NzUsNDY3LjQyMTkgNzguODc1LDQ2NC42MDk0IEw3Ny4xMjUsNDY0LjYwOTQgUTc3LjEyNSw0NjQuNjA5NCA3Ny4xMjUsNDY3LjQyMTkgWiBNNzcuMTI1LDQ1OC4yMzQ0IFE3Ny4xMjUsNDU4LjIzNDQgNzcuMTI1LDQ2MS4wNDY5IEw3OC44NzUsNDYxLjA0NjkgUTc4Ljg3NSw0NjEuMDQ2OSA3OC44NzUsNDU4LjIzNDQgTDc3LjEyNSw0NTguMjM0NCBaIE03Mi44NzUsNDU4LjkyMTkgTDc3LjgxMjUsNDU4LjkyMTkgTDc3LjgxMjUsNDU3LjE3MTkgTDcyLjg3NSw0NTcuMTcxOSBMNzIuODc1LDQ1OC45MjE5IFogIiBmaWxsPSIjMDAwMDAwIi8+PHRleHQgZmlsbD0iIzAwMDAwMCIgZm9udC1mYW1pbHk9InNhbnMtc2VyaWYiIGZvbnQtc2l6ZT0iMTQiIGxlbmd0aEFkanVzdD0ic3BhY2luZyIgdGV4dExlbmd0aD0iMjgiIHg9Ijk1Ljc1IiB5PSI0NjguMjI2NiI+Q2FydDwvdGV4dD48bGluZSBzdHlsZT0ic3Ryb2tlOiMxODE4MTg7c3Ryb2tlLXdpZHRoOjAuNTsiIHgxPSI4IiB4Mj0iMTc5IiB5MT0iNDc4LjQ4NDQiIHkyPSI0NzguNDg0NCIvPjxyZWN0IGZpbGw9Im5vbmUiIGhlaWdodD0iNiIgc3R5bGU9InN0cm9rZTojQzgyOTMwO3N0cm9rZS13aWR0aDoxOyIgd2lkdGg9IjYiIHg9IjE1IiB5PSI0ODguNDc2NiIvPjx0ZXh0IGZpbGw9IiMwMDAwMDAiIGZvbnQtZmFtaWx5PSJzYW5zLXNlcmlmIiBmb250LXNpemU9IjE0IiBsZW5ndGhBZGp1c3Q9InNwYWNpbmciIHRleHRMZW5ndGg9IjQ5IiB4PSIyNyIgeT0iNDk1LjcxODgiPmlkOiBpbnQ8L3RleHQ+PHJlY3QgZmlsbD0ibm9uZSIgaGVpZ2h0PSI2IiBzdHlsZT0ic3Ryb2tlOiNDODI5MzA7c3Ryb2tlLXdpZHRoOjE7IiB3aWR0aD0iNiIgeD0iMTUiIHk9IjUwMy40NjA5Ii8+PHRleHQgZmlsbD0iIzAwMDAwMCIgZm9udC1mYW1pbHk9InNhbnMtc2VyaWYiIGZvbnQtc2l6ZT0iMTQiIGxlbmd0aEFkanVzdD0ic3BhY2luZyIgdGV4dExlbmd0aD0iMTA1IiB4PSIyNyIgeT0iNTEwLjcwMzEiPmN1c3RvbWVySWQ6IGludDwvdGV4dD48cmVjdCBmaWxsPSJub25lIiBoZWlnaHQ9IjYiIHN0eWxlPSJzdHJva2U6I0M4MjkzMDtzdHJva2Utd2lkdGg6MTsiIHdpZHRoPSI2IiB4PSIxNSIgeT0iNTE4LjQ0NTMiLz48dGV4dCBmaWxsPSIjMDAwMDAwIiBmb250LWZhbWlseT0ic2Fucy1zZXJpZiIgZm9udC1zaXplPSIxNCIgbGVuZ3RoQWRqdXN0PSJzcGFjaW5nIiB0ZXh0TGVuZ3RoPSIxNDciIHg9IjI3IiB5PSI1MjUuNjg3NSI+aXRlbXM6IExpc3QmbHQ7Q2FydEl0ZW0mZ3Q7PC90ZXh0PjxsaW5lIHN0eWxlPSJzdHJva2U6IzE4MTgxODtzdHJva2Utd2lkdGg6MC41OyIgeDE9IjgiIHgyPSIxNzkiIHkxPSI1MzEuNDM3NSIgeTI9IjUzMS40Mzc1Ii8+PGVsbGlwc2UgY3g9IjE4IiBjeT0iNTQ0LjQyOTciIGZpbGw9IiM4NEJFODQiIHJ4PSIzIiByeT0iMyIgc3R5bGU9InN0cm9rZTojMDM4MDQ4O3N0cm9rZS13aWR0aDoxOyIvPjx0ZXh0IGZpbGw9IiMwMDAwMDAiIGZvbnQtZmFtaWx5PSJzYW5zLXNlcmlmIiBmb250LXNpemU9IjE0IiBsZW5ndGhBZGp1c3Q9InNwYWNpbmciIHRleHRMZW5ndGg9IjYzIiB4PSIyNyIgeT0iNTQ4LjY3MTkiPmFkZEl0ZW0oKTwvdGV4dD48ZWxsaXBzZSBjeD0iMTgiIGN5PSI1NTkuNDE0MSIgZmlsbD0iIzg0QkU4NCIgcng9IjMiIHJ5PSIzIiBzdHlsZT0ic3Ryb2tlOiMwMzgwNDg7c3Ryb2tlLXdpZHRoOjE7Ii8+PHRleHQgZmlsbD0iIzAwMDAwMCIgZm9udC1mYW1pbHk9InNhbnMtc2VyaWYiIGZvbnQtc2l6ZT0iMTQiIGxlbmd0aEFkanVzdD0ic3BhY2luZyIgdGV4dExlbmd0aD0iODQiIHg9IjI3IiB5PSI1NjMuNjU2MyI+cmVtb3ZlSXRlbSgpPC90ZXh0PjxlbGxpcHNlIGN4PSIxOCIgY3k9IjU3NC4zOTg0IiBmaWxsPSIjODRCRTg0IiByeD0iMyIgcnk9IjMiIHN0eWxlPSJzdHJva2U6IzAzODA0ODtzdHJva2Utd2lkdGg6MTsiLz48dGV4dCBmaWxsPSIjMDAwMDAwIiBmb250LWZhbWlseT0ic2Fucy1zZXJpZiIgZm9udC1zaXplPSIxNCIgbGVuZ3RoQWRqdXN0PSJzcGFjaW5nIiB0ZXh0TGVuZ3RoPSI3NyIgeD0iMjciIHk9IjU3OC42NDA2Ij5jbGVhckNhcnQoKTwvdGV4dD48L2c+PCEtLWNsYXNzIENhcnRJdGVtLS0+PGcgY2xhc3M9ImVudGl0eSIgZGF0YS1lbnRpdHk9IkNhcnRJdGVtIiBkYXRhLXNvdXJjZS1saW5lPSI2NSIgZGF0YS11aWQ9ImVudDAwMTEiIGlkPSJlbnRpdHlfQ2FydEl0ZW0iPjxyZWN0IGZpbGw9IiNGMUYxRjEiIGhlaWdodD0iNzcuOTY4OCIgcng9IjIuNSIgcnk9IjIuNSIgc3R5bGU9InN0cm9rZTojMTgxODE4O3N0cm9rZS13aWR0aDowLjU7IiB3aWR0aD0iMTI0IiB4PSIzMS41IiB5PSI2ODEuOTg0NCIvPjxlbGxpcHNlIGN4PSI2Mi43IiBjeT0iNjk3Ljk4NDQiIGZpbGw9IiNBREQxQjIiIHJ4PSIxMSIgcnk9IjExIiBzdHlsZT0ic3Ryb2tlOiMxODE4MTg7c3Ryb2tlLXdpZHRoOjE7Ii8+PHBhdGggZD0iTTYwLjMyNSw3MDIuMjM0NCBMNjAuMzI1LDcwMy45ODQ0IEw2NS4yNjI1LDcwMy45ODQ0IEw2NS4yNjI1LDcwMi4yMzQ0IEw2MC4zMjUsNzAyLjIzNDQgWiBNNjEuMDEyNSw3MDIuOTIxOSBRNjEuMDEyNSw3MDIuOTIxOSA2MS4wMTI1LDY5My43MzQ0IEw1OS4yNjI1LDY5My43MzQ0IFE1OS4yNjI1LDY5My43MzQ0IDU5LjI2MjUsNzAyLjkyMTkgTDYxLjAxMjUsNzAyLjkyMTkgWiBNNjQuNTc1LDcwMi45MjE5IEw2Ni4zMjUsNzAyLjkyMTkgUTY2LjMyNSw3MDIuOTIxOSA2Ni4zMjUsNzAwLjEwOTQgTDY0LjU3NSw3MDAuMTA5NCBRNjQuNTc1LDcwMC4xMDk0IDY0LjU3NSw3MDIuOTIxOSBaIE02NC41NzUsNjkzLjczNDQgUTY0LjU3NSw2OTMuNzM0NCA2NC41NzUsNjk2LjU0NjkgTDY2LjMyNSw2OTYuNTQ2OSBRNjYuMzI1LDY5Ni41NDY5IDY2LjMyNSw2OTMuNzM0NCBMNjQuNTc1LDY5My43MzQ0IFogTTYwLjMyNSw2OTQuNDIxOSBMNjUuMjYyNSw2OTQuNDIxOSBMNjUuMjYyNSw2OTIuNjcxOSBMNjAuMzI1LDY5Mi42NzE5IEw2MC4zMjUsNjk0LjQyMTkgWiAiIGZpbGw9IiMwMDAwMDAiLz48dGV4dCBmaWxsPSIjMDAwMDAwIiBmb250LWZhbWlseT0ic2Fucy1zZXJpZiIgZm9udC1zaXplPSIxNCIgbGVuZ3RoQWRqdXN0PSJzcGFjaW5nIiB0ZXh0TGVuZ3RoPSI1NiIgeD0iODAuMyIgeT0iNzAzLjcyNjYiPkNhcnRJdGVtPC90ZXh0PjxsaW5lIHN0eWxlPSJzdHJva2U6IzE4MTgxODtzdHJva2Utd2lkdGg6MC41OyIgeDE9IjMyLjUiIHgyPSIxNTQuNSIgeTE9IjcxMy45ODQ0IiB5Mj0iNzEzLjk4NDQiLz48cmVjdCBmaWxsPSJub25lIiBoZWlnaHQ9IjYiIHN0eWxlPSJzdHJva2U6I0M4MjkzMDtzdHJva2Utd2lkdGg6MTsiIHdpZHRoPSI2IiB4PSIzOS41IiB5PSI3MjMuOTc2NiIvPjx0ZXh0IGZpbGw9IiMwMDAwMDAiIGZvbnQtZmFtaWx5PSJzYW5zLXNlcmlmIiBmb250LXNpemU9IjE0IiBsZW5ndGhBZGp1c3Q9InNwYWNpbmciIHRleHRMZW5ndGg9Ijk4IiB4PSI1MS41IiB5PSI3MzEuMjE4OCI+cHJvZHVjdElkOiBpbnQ8L3RleHQ+PHJlY3QgZmlsbD0ibm9uZSIgaGVpZ2h0PSI2IiBzdHlsZT0ic3Ryb2tlOiNDODI5MzA7c3Ryb2tlLXdpZHRoOjE7IiB3aWR0aD0iNiIgeD0iMzkuNSIgeT0iNzM4Ljk2MDkiLz48dGV4dCBmaWxsPSIjMDAwMDAwIiBmb250LWZhbWlseT0ic2Fucy1zZXJpZiIgZm9udC1zaXplPSIxNCIgbGVuZ3RoQWRqdXN0PSJzcGFjaW5nIiB0ZXh0TGVuZ3RoPSI5MSIgeD0iNTEuNSIgeT0iNzQ2LjIwMzEiPnF1YW50aXR5OiBpbnQ8L3RleHQ+PGxpbmUgc3R5bGU9InN0cm9rZTojMTgxODE4O3N0cm9rZS13aWR0aDowLjU7IiB4MT0iMzIuNSIgeDI9IjE1NC41IiB5MT0iNzUxLjk1MzEiIHkyPSI3NTEuOTUzMSIvPjwvZz48IS0tY2xhc3MgT3JkZXItLT48ZyBjbGFzcz0iZW50aXR5IiBkYXRhLWVudGl0eT0iT3JkZXIiIGRhdGEtc291cmNlLWxpbmU9IjcwIiBkYXRhLXVpZD0iZW50MDAxMiIgaWQ9ImVudGl0eV9PcmRlciI+PHJlY3QgZmlsbD0iI0YxRjFGMSIgaGVpZ2h0PSIxNTIuODkwNiIgcng9IjIuNSIgcnk9IjIuNSIgc3R5bGU9InN0cm9rZTojMTgxODE4O3N0cm9rZS13aWR0aDowLjU7IiB3aWR0aD0iMTgwIiB4PSIyMTUuNSIgeT0iNDM4Ljk4NDQiLz48ZWxsaXBzZSBjeD0iMjgzLjc1IiBjeT0iNDU0Ljk4NDQiIGZpbGw9IiNBREQxQjIiIHJ4PSIxMSIgcnk9IjExIiBzdHlsZT0ic3Ryb2tlOiMxODE4MTg7c3Ryb2tlLXdpZHRoOjE7Ii8+PHBhdGggZD0iTTI4MS4zNzUsNDU5LjIzNDQgTDI4MS4zNzUsNDYwLjk4NDQgTDI4Ni4zMTI1LDQ2MC45ODQ0IEwyODYuMzEyNSw0NTkuMjM0NCBMMjgxLjM3NSw0NTkuMjM0NCBaIE0yODIuMDYyNSw0NTkuOTIxOSBRMjgyLjA2MjUsNDU5LjkyMTkgMjgyLjA2MjUsNDUwLjczNDQgTDI4MC4zMTI1LDQ1MC43MzQ0IFEyODAuMzEyNSw0NTAuNzM0NCAyODAuMzEyNSw0NTkuOTIxOSBMMjgyLjA2MjUsNDU5LjkyMTkgWiBNMjg1LjYyNSw0NTkuOTIxOSBMMjg3LjM3NSw0NTkuOTIxOSBRMjg3LjM3NSw0NTkuOTIxOSAyODcuMzc1LDQ1Ny4xMDk0IEwyODUuNjI1LDQ1Ny4xMDk0IFEyODUuNjI1LDQ1Ny4xMDk0IDI4NS42MjUsNDU5LjkyMTkgWiBNMjg1LjYyNSw0NTAuNzM0NCBRMjg1LjYyNSw0NTAuNzM0NCAyODUuNjI1LDQ1My41NDY5IEwyODcuMzc1LDQ1My41NDY5IFEyODcuMzc1LDQ1My41NDY5IDI4Ny4zNzUsNDUwLjczNDQgTDI4NS42MjUsNDUwLjczNDQgWiBNMjgxLjM3NSw0NTEuNDIxOSBMMjg2LjMxMjUsNDUxLjQyMTkgTDI4Ni4zMTI1LDQ0OS42NzE5IEwyODEuMzc1LDQ0OS42NzE5IEwyODEuMzc1LDQ1MS40MjE5IFogIiBmaWxsPSIjMDAwMDAwIi8+PHRleHQgZmlsbD0iIzAwMDAwMCIgZm9udC1mYW1pbHk9InNhbnMtc2VyaWYiIGZvbnQtc2l6ZT0iMTQiIGxlbmd0aEFkanVzdD0ic3BhY2luZyIgdGV4dExlbmd0aD0iMzUiIHg9IjMwNC4yNSIgeT0iNDYwLjcyNjYiPk9yZGVyPC90ZXh0PjxsaW5lIHN0eWxlPSJzdHJva2U6IzE4MTgxODtzdHJva2Utd2lkdGg6MC41OyIgeDE9IjIxNi41IiB4Mj0iMzk0LjUiIHkxPSI0NzAuOTg0NCIgeTI9IjQ3MC45ODQ0Ii8+PHJlY3QgZmlsbD0ibm9uZSIgaGVpZ2h0PSI2IiBzdHlsZT0ic3Ryb2tlOiNDODI5MzA7c3Ryb2tlLXdpZHRoOjE7IiB3aWR0aD0iNiIgeD0iMjIzLjUiIHk9IjQ4MC45NzY2Ii8+PHRleHQgZmlsbD0iIzAwMDAwMCIgZm9udC1mYW1pbHk9InNhbnMtc2VyaWYiIGZvbnQtc2l6ZT0iMTQiIGxlbmd0aEFkanVzdD0ic3BhY2luZyIgdGV4dExlbmd0aD0iNDkiIHg9IjIzNS41IiB5PSI0ODguMjE4OCI+aWQ6IGludDwvdGV4dD48cmVjdCBmaWxsPSJub25lIiBoZWlnaHQ9IjYiIHN0eWxlPSJzdHJva2U6I0M4MjkzMDtzdHJva2Utd2lkdGg6MTsiIHdpZHRoPSI2IiB4PSIyMjMuNSIgeT0iNDk1Ljk2MDkiLz48dGV4dCBmaWxsPSIjMDAwMDAwIiBmb250LWZhbWlseT0ic2Fucy1zZXJpZiIgZm9udC1zaXplPSIxNCIgbGVuZ3RoQWRqdXN0PSJzcGFjaW5nIiB0ZXh0TGVuZ3RoPSIxMDUiIHg9IjIzNS41IiB5PSI1MDMuMjAzMSI+Y3VzdG9tZXJJZDogaW50PC90ZXh0PjxyZWN0IGZpbGw9Im5vbmUiIGhlaWdodD0iNiIgc3R5bGU9InN0cm9rZTojQzgyOTMwO3N0cm9rZS13aWR0aDoxOyIgd2lkdGg9IjYiIHg9IjIyMy41IiB5PSI1MTAuOTQ1MyIvPjx0ZXh0IGZpbGw9IiMwMDAwMDAiIGZvbnQtZmFtaWx5PSJzYW5zLXNlcmlmIiBmb250LXNpemU9IjE0IiBsZW5ndGhBZGp1c3Q9InNwYWNpbmciIHRleHRMZW5ndGg9IjE1NCIgeD0iMjM1LjUiIHk9IjUxOC4xODc1Ij5pdGVtczogTGlzdCZsdDtPcmRlckl0ZW0mZ3Q7PC90ZXh0PjxyZWN0IGZpbGw9Im5vbmUiIGhlaWdodD0iNiIgc3R5bGU9InN0cm9rZTojQzgyOTMwO3N0cm9rZS13aWR0aDoxOyIgd2lkdGg9IjYiIHg9IjIyMy41IiB5PSI1MjUuOTI5NyIvPjx0ZXh0IGZpbGw9IiMwMDAwMDAiIGZvbnQtZmFtaWx5PSJzYW5zLXNlcmlmIiBmb250LXNpemU9IjE0IiBsZW5ndGhBZGp1c3Q9InNwYWNpbmciIHRleHRMZW5ndGg9Ijg0IiB4PSIyMzUuNSIgeT0iNTMzLjE3MTkiPnRvdGFsOiBmbG9hdDwvdGV4dD48cmVjdCBmaWxsPSJub25lIiBoZWlnaHQ9IjYiIHN0eWxlPSJzdHJva2U6I0M4MjkzMDtzdHJva2Utd2lkdGg6MTsiIHdpZHRoPSI2IiB4PSIyMjMuNSIgeT0iNTQwLjkxNDEiLz48dGV4dCBmaWxsPSIjMDAwMDAwIiBmb250LWZhbWlseT0ic2Fucy1zZXJpZiIgZm9udC1zaXplPSIxNCIgbGVuZ3RoQWRqdXN0PSJzcGFjaW5nIiB0ZXh0TGVuZ3RoPSI5OCIgeD0iMjM1LjUiIHk9IjU0OC4xNTYzIj5zdGF0dXM6IHN0cmluZzwvdGV4dD48bGluZSBzdHlsZT0ic3Ryb2tlOiMxODE4MTg7c3Ryb2tlLXdpZHRoOjAuNTsiIHgxPSIyMTYuNSIgeDI9IjM5NC41IiB5MT0iNTUzLjkwNjMiIHkyPSI1NTMuOTA2MyIvPjxlbGxpcHNlIGN4PSIyMjYuNSIgY3k9IjU2Ni44OTg0IiBmaWxsPSIjODRCRTg0IiByeD0iMyIgcnk9IjMiIHN0eWxlPSJzdHJva2U6IzAzODA0ODtzdHJva2Utd2lkdGg6MTsiLz48dGV4dCBmaWxsPSIjMDAwMDAwIiBmb250LWZhbWlseT0ic2Fucy1zZXJpZiIgZm9udC1zaXplPSIxNCIgbGVuZ3RoQWRqdXN0PSJzcGFjaW5nIiB0ZXh0TGVuZ3RoPSIxMTIiIHg9IjIzNS41IiB5PSI1NzEuMTQwNiI+Y2FsY3VsYXRlVG90YWwoKTwvdGV4dD48ZWxsaXBzZSBjeD0iMjI2LjUiIGN5PSI1ODEuODgyOCIgZmlsbD0iIzg0QkU4NCIgcng9IjMiIHJ5PSIzIiBzdHlsZT0ic3Ryb2tlOiMwMzgwNDg7c3Ryb2tlLXdpZHRoOjE7Ii8+PHRleHQgZmlsbD0iIzAwMDAwMCIgZm9udC1mYW1pbHk9InNhbnMtc2VyaWYiIGZvbnQtc2l6ZT0iMTQiIGxlbmd0aEFkanVzdD0ic3BhY2luZyIgdGV4dExlbmd0aD0iOTgiIHg9IjIzNS41IiB5PSI1ODYuMTI1Ij51cGRhdGVTdGF0dXMoKTwvdGV4dD48L2c+PCEtLWNsYXNzIE9yZGVySXRlbS0tPjxnIGNsYXNzPSJlbnRpdHkiIGRhdGEtZW50aXR5PSJPcmRlckl0ZW0iIGRhdGEtc291cmNlLWxpbmU9IjgwIiBkYXRhLXVpZD0iZW50MDAxMyIgaWQ9ImVudGl0eV9PcmRlckl0ZW0iPjxyZWN0IGZpbGw9IiNGMUYxRjEiIGhlaWdodD0iOTIuOTUzMSIgcng9IjIuNSIgcnk9IjIuNSIgc3R5bGU9InN0cm9rZTojMTgxODE4O3N0cm9rZS13aWR0aDowLjU7IiB3aWR0aD0iMTI0IiB4PSIyMTYuNSIgeT0iNjc0LjQ4NDQiLz48ZWxsaXBzZSBjeD0iMjQ0LjU1IiBjeT0iNjkwLjQ4NDQiIGZpbGw9IiNBREQxQjIiIHJ4PSIxMSIgcnk9IjExIiBzdHlsZT0ic3Ryb2tlOiMxODE4MTg7c3Ryb2tlLXdpZHRoOjE7Ii8+PHBhdGggZD0iTTI0Mi4xNzUsNjk0LjczNDQgTDI0Mi4xNzUsNjk2LjQ4NDQgTDI0Ny4xMTI1LDY5Ni40ODQ0IEwyNDcuMTEyNSw2OTQuNzM0NCBMMjQyLjE3NSw2OTQuNzM0NCBaIE0yNDIuODYyNSw2OTUuNDIxOSBRMjQyLjg2MjUsNjk1LjQyMTkgMjQyLjg2MjUsNjg2LjIzNDQgTDI0MS4xMTI1LDY4Ni4yMzQ0IFEyNDEuMTEyNSw2ODYuMjM0NCAyNDEuMTEyNSw2OTUuNDIxOSBMMjQyLjg2MjUsNjk1LjQyMTkgWiBNMjQ2LjQyNSw2OTUuNDIxOSBMMjQ4LjE3NSw2OTUuNDIxOSBRMjQ4LjE3NSw2OTUuNDIxOSAyNDguMTc1LDY5Mi42MDk0IEwyNDYuNDI1LDY5Mi42MDk0IFEyNDYuNDI1LDY5Mi42MDk0IDI0Ni40MjUsNjk1LjQyMTkgWiBNMjQ2LjQyNSw2ODYuMjM0NCBRMjQ2LjQyNSw2ODYuMjM0NCAyNDYuNDI1LDY4OS4wNDY5IEwyNDguMTc1LDY4OS4wNDY5IFEyNDguMTc1LDY4OS4wNDY5IDI0OC4xNzUsNjg2LjIzNDQgTDI0Ni40MjUsNjg2LjIzNDQgWiBNMjQyLjE3NSw2ODYuOTIxOSBMMjQ3LjExMjUsNjg2LjkyMTkgTDI0Ny4xMTI1LDY4NS4xNzE5IEwyNDIuMTc1LDY4NS4xNzE5IEwyNDIuMTc1LDY4Ni45MjE5IFogIiBmaWxsPSIjMDAwMDAwIi8+PHRleHQgZmlsbD0iIzAwMDAwMCIgZm9udC1mYW1pbHk9InNhbnMtc2VyaWYiIGZvbnQtc2l6ZT0iMTQiIGxlbmd0aEFkanVzdD0ic3BhY2luZyIgdGV4dExlbmd0aD0iNjMiIHg9IjI2MS40NSIgeT0iNjk2LjIyNjYiPk9yZGVySXRlbTwvdGV4dD48bGluZSBzdHlsZT0ic3Ryb2tlOiMxODE4MTg7c3Ryb2tlLXdpZHRoOjAuNTsiIHgxPSIyMTcuNSIgeDI9IjMzOS41IiB5MT0iNzA2LjQ4NDQiIHkyPSI3MDYuNDg0NCIvPjxyZWN0IGZpbGw9Im5vbmUiIGhlaWdodD0iNiIgc3R5bGU9InN0cm9rZTojQzgyOTMwO3N0cm9rZS13aWR0aDoxOyIgd2lkdGg9IjYiIHg9IjIyNC41IiB5PSI3MTYuNDc2NiIvPjx0ZXh0IGZpbGw9IiMwMDAwMDAiIGZvbnQtZmFtaWx5PSJzYW5zLXNlcmlmIiBmb250LXNpemU9IjE0IiBsZW5ndGhBZGp1c3Q9InNwYWNpbmciIHRleHRMZW5ndGg9Ijk4IiB4PSIyMzYuNSIgeT0iNzIzLjcxODgiPnByb2R1Y3RJZDogaW50PC90ZXh0PjxyZWN0IGZpbGw9Im5vbmUiIGhlaWdodD0iNiIgc3R5bGU9InN0cm9rZTojQzgyOTMwO3N0cm9rZS13aWR0aDoxOyIgd2lkdGg9IjYiIHg9IjIyNC41IiB5PSI3MzEuNDYwOSIvPjx0ZXh0IGZpbGw9IiMwMDAwMDAiIGZvbnQtZmFtaWx5PSJzYW5zLXNlcmlmIiBmb250LXNpemU9IjE0IiBsZW5ndGhBZGp1c3Q9InNwYWNpbmciIHRleHRMZW5ndGg9IjkxIiB4PSIyMzYuNSIgeT0iNzM4LjcwMzEiPnF1YW50aXR5OiBpbnQ8L3RleHQ+PHJlY3QgZmlsbD0ibm9uZSIgaGVpZ2h0PSI2IiBzdHlsZT0ic3Ryb2tlOiNDODI5MzA7c3Ryb2tlLXdpZHRoOjE7IiB3aWR0aD0iNiIgeD0iMjI0LjUiIHk9Ijc0Ni40NDUzIi8+PHRleHQgZmlsbD0iIzAwMDAwMCIgZm9udC1mYW1pbHk9InNhbnMtc2VyaWYiIGZvbnQtc2l6ZT0iMTQiIGxlbmd0aEFkanVzdD0ic3BhY2luZyIgdGV4dExlbmd0aD0iODQiIHg9IjIzNi41IiB5PSI3NTMuNjg3NSI+cHJpY2U6IGZsb2F0PC90ZXh0PjxsaW5lIHN0eWxlPSJzdHJva2U6IzE4MTgxODtzdHJva2Utd2lkdGg6MC41OyIgeDE9IjIxNy41IiB4Mj0iMzM5LjUiIHkxPSI3NTkuNDM3NSIgeTI9Ijc1OS40Mzc1Ii8+PC9nPjwhLS1jbGFzcyBQYXltZW50LS0+PGcgY2xhc3M9ImVudGl0eSIgZGF0YS1lbnRpdHk9IlBheW1lbnQiIGRhdGEtc291cmNlLWxpbmU9Ijk0IiBkYXRhLXVpZD0iZW50MDAxOCIgaWQ9ImVudGl0eV9QYXltZW50Ij48cmVjdCBmaWxsPSIjRjFGMUYxIiBoZWlnaHQ9IjEzNy45MDYzIiByeD0iMi41IiByeT0iMi41IiBzdHlsZT0ic3Ryb2tlOiMxODE4MTg7c3Ryb2tlLXdpZHRoOjAuNTsiIHdpZHRoPSIxNzMiIHg9IjM3NiIgeT0iNjUxLjk4NDQiLz48ZWxsaXBzZSBjeD0iNDMzLjc1IiBjeT0iNjY3Ljk4NDQiIGZpbGw9IiNBREQxQjIiIHJ4PSIxMSIgcnk9IjExIiBzdHlsZT0ic3Ryb2tlOiMxODE4MTg7c3Ryb2tlLXdpZHRoOjE7Ii8+PHBhdGggZD0iTTQzMS4zNzUsNjcyLjIzNDQgTDQzMS4zNzUsNjczLjk4NDQgTDQzNi4zMTI1LDY3My45ODQ0IEw0MzYuMzEyNSw2NzIuMjM0NCBMNDMxLjM3NSw2NzIuMjM0NCBaIE00MzIuMDYyNSw2NzIuOTIxOSBRNDMyLjA2MjUsNjcyLjkyMTkgNDMyLjA2MjUsNjYzLjczNDQgTDQzMC4zMTI1LDY2My43MzQ0IFE0MzAuMzEyNSw2NjMuNzM0NCA0MzAuMzEyNSw2NzIuOTIxOSBMNDMyLjA2MjUsNjcyLjkyMTkgWiBNNDM1LjYyNSw2NzIuOTIxOSBMNDM3LjM3NSw2NzIuOTIxOSBRNDM3LjM3NSw2NzIuOTIxOSA0MzcuMzc1LDY3MC4xMDk0IEw0MzUuNjI1LDY3MC4xMDk0IFE0MzUuNjI1LDY3MC4xMDk0IDQzNS42MjUsNjcyLjkyMTkgWiBNNDM1LjYyNSw2NjMuNzM0NCBRNDM1LjYyNSw2NjMuNzM0NCA0MzUuNjI1LDY2Ni41NDY5IEw0MzcuMzc1LDY2Ni41NDY5IFE0MzcuMzc1LDY2Ni41NDY5IDQzNy4zNzUsNjYzLjczNDQgTDQzNS42MjUsNjYzLjczNDQgWiBNNDMxLjM3NSw2NjQuNDIxOSBMNDM2LjMxMjUsNjY0LjQyMTkgTDQzNi4zMTI1LDY2Mi42NzE5IEw0MzEuMzc1LDY2Mi42NzE5IEw0MzEuMzc1LDY2NC40MjE5IFogIiBmaWxsPSIjMDAwMDAwIi8+PHRleHQgZmlsbD0iIzAwMDAwMCIgZm9udC1mYW1pbHk9InNhbnMtc2VyaWYiIGZvbnQtc2l6ZT0iMTQiIGxlbmd0aEFkanVzdD0ic3BhY2luZyIgdGV4dExlbmd0aD0iNDkiIHg9IjQ1NC4yNSIgeT0iNjczLjcyNjYiPlBheW1lbnQ8L3RleHQ+PGxpbmUgc3R5bGU9InN0cm9rZTojMTgxODE4O3N0cm9rZS13aWR0aDowLjU7IiB4MT0iMzc3IiB4Mj0iNTQ4IiB5MT0iNjgzLjk4NDQiIHkyPSI2ODMuOTg0NCIvPjxyZWN0IGZpbGw9Im5vbmUiIGhlaWdodD0iNiIgc3R5bGU9InN0cm9rZTojQzgyOTMwO3N0cm9rZS13aWR0aDoxOyIgd2lkdGg9IjYiIHg9IjM4NCIgeT0iNjkzLjk3NjYiLz48dGV4dCBmaWxsPSIjMDAwMDAwIiBmb250LWZhbWlseT0ic2Fucy1zZXJpZiIgZm9udC1zaXplPSIxNCIgbGVuZ3RoQWRqdXN0PSJzcGFjaW5nIiB0ZXh0TGVuZ3RoPSI0OSIgeD0iMzk2IiB5PSI3MDEuMjE4OCI+aWQ6IGludDwvdGV4dD48cmVjdCBmaWxsPSJub25lIiBoZWlnaHQ9IjYiIHN0eWxlPSJzdHJva2U6I0M4MjkzMDtzdHJva2Utd2lkdGg6MTsiIHdpZHRoPSI2IiB4PSIzODQiIHk9IjcwOC45NjA5Ii8+PHRleHQgZmlsbD0iIzAwMDAwMCIgZm9udC1mYW1pbHk9InNhbnMtc2VyaWYiIGZvbnQtc2l6ZT0iMTQiIGxlbmd0aEFkanVzdD0ic3BhY2luZyIgdGV4dExlbmd0aD0iODQiIHg9IjM5NiIgeT0iNzE2LjIwMzEiPm9yZGVySWQ6IGludDwvdGV4dD48cmVjdCBmaWxsPSJub25lIiBoZWlnaHQ9IjYiIHN0eWxlPSJzdHJva2U6I0M4MjkzMDtzdHJva2Utd2lkdGg6MTsiIHdpZHRoPSI2IiB4PSIzODQiIHk9IjcyMy45NDUzIi8+PHRleHQgZmlsbD0iIzAwMDAwMCIgZm9udC1mYW1pbHk9InNhbnMtc2VyaWYiIGZvbnQtc2l6ZT0iMTQiIGxlbmd0aEFkanVzdD0ic3BhY2luZyIgdGV4dExlbmd0aD0iOTEiIHg9IjM5NiIgeT0iNzMxLjE4NzUiPmFtb3VudDogZmxvYXQ8L3RleHQ+PHJlY3QgZmlsbD0ibm9uZSIgaGVpZ2h0PSI2IiBzdHlsZT0ic3Ryb2tlOiNDODI5MzA7c3Ryb2tlLXdpZHRoOjE7IiB3aWR0aD0iNiIgeD0iMzg0IiB5PSI3MzguOTI5NyIvPjx0ZXh0IGZpbGw9IiMwMDAwMDAiIGZvbnQtZmFtaWx5PSJzYW5zLXNlcmlmIiBmb250LXNpemU9IjE0IiBsZW5ndGhBZGp1c3Q9InNwYWNpbmciIHRleHRMZW5ndGg9Ijk4IiB4PSIzOTYiIHk9Ijc0Ni4xNzE5Ij5zdGF0dXM6IHN0cmluZzwvdGV4dD48cmVjdCBmaWxsPSJub25lIiBoZWlnaHQ9IjYiIHN0eWxlPSJzdHJva2U6I0M4MjkzMDtzdHJva2Utd2lkdGg6MTsiIHdpZHRoPSI2IiB4PSIzODQiIHk9Ijc1My45MTQxIi8+PHRleHQgZmlsbD0iIzAwMDAwMCIgZm9udC1mYW1pbHk9InNhbnMtc2VyaWYiIGZvbnQtc2l6ZT0iMTQiIGxlbmd0aEFkanVzdD0ic3BhY2luZyIgdGV4dExlbmd0aD0iMTQ3IiB4PSIzOTYiIHk9Ijc2MS4xNTYzIj5wYXltZW50TWV0aG9kOiBzdHJpbmc8L3RleHQ+PGxpbmUgc3R5bGU9InN0cm9rZTojMTgxODE4O3N0cm9rZS13aWR0aDowLjU7IiB4MT0iMzc3IiB4Mj0iNTQ4IiB5MT0iNzY2LjkwNjMiIHkyPSI3NjYuOTA2MyIvPjxlbGxpcHNlIGN4PSIzODciIGN5PSI3NzkuODk4NCIgZmlsbD0iIzg0QkU4NCIgcng9IjMiIHJ5PSIzIiBzdHlsZT0ic3Ryb2tlOiMwMzgwNDg7c3Ryb2tlLXdpZHRoOjE7Ii8+PHRleHQgZmlsbD0iIzAwMDAwMCIgZm9udC1mYW1pbHk9InNhbnMtc2VyaWYiIGZvbnQtc2l6ZT0iMTQiIGxlbmd0aEFkanVzdD0ic3BhY2luZyIgdGV4dExlbmd0aD0iMTEyIiB4PSIzOTYiIHk9Ijc4NC4xNDA2Ij5wcm9jZXNzUGF5bWVudCgpPC90ZXh0PjwvZz48IS0tY2xhc3MgUmV2aWV3LS0+PGcgY2xhc3M9ImVudGl0eSIgZGF0YS1lbnRpdHk9IlJldmlldyIgZGF0YS1zb3VyY2UtbGluZT0iMTA4IiBkYXRhLXVpZD0iZW50MDAyMCIgaWQ9ImVudGl0eV9SZXZpZXciPjxyZWN0IGZpbGw9IiNGMUYxRjEiIGhlaWdodD0iMTUyLjg5MDYiIHJ4PSIyLjUiIHJ5PSIyLjUiIHN0eWxlPSJzdHJva2U6IzE4MTgxODtzdHJva2Utd2lkdGg6MC41OyIgd2lkdGg9IjEzMSIgeD0iNTA4IiB5PSI0MzguOTg0NCIvPjxlbGxpcHNlIGN4PSI1NDguNjUiIGN5PSI0NTQuOTg0NCIgZmlsbD0iI0FERDFCMiIgcng9IjExIiByeT0iMTEiIHN0eWxlPSJzdHJva2U6IzE4MTgxODtzdHJva2Utd2lkdGg6MTsiLz48cGF0aCBkPSJNNTQ2LjI3NSw0NTkuMjM0NCBMNTQ2LjI3NSw0NjAuOTg0NCBMNTUxLjIxMjUsNDYwLjk4NDQgTDU1MS4yMTI1LDQ1OS4yMzQ0IEw1NDYuMjc1LDQ1OS4yMzQ0IFogTTU0Ni45NjI1LDQ1OS45MjE5IFE1NDYuOTYyNSw0NTkuOTIxOSA1NDYuOTYyNSw0NTAuNzM0NCBMNTQ1LjIxMjUsNDUwLjczNDQgUTU0NS4yMTI1LDQ1MC43MzQ0IDU0NS4yMTI1LDQ1OS45MjE5IEw1NDYuOTYyNSw0NTkuOTIxOSBaIE01NTAuNTI1LDQ1OS45MjE5IEw1NTIuMjc1LDQ1OS45MjE5IFE1NTIuMjc1LDQ1OS45MjE5IDU1Mi4yNzUsNDU3LjEwOTQgTDU1MC41MjUsNDU3LjEwOTQgUTU1MC41MjUsNDU3LjEwOTQgNTUwLjUyNSw0NTkuOTIxOSBaIE01NTAuNTI1LDQ1MC43MzQ0IFE1NTAuNTI1LDQ1MC43MzQ0IDU1MC41MjUsNDUzLjU0NjkgTDU1Mi4yNzUsNDUzLjU0NjkgUTU1Mi4yNzUsNDUzLjU0NjkgNTUyLjI3NSw0NTAuNzM0NCBMNTUwLjUyNSw0NTAuNzM0NCBaIE01NDYuMjc1LDQ1MS40MjE5IEw1NTEuMjEyNSw0NTEuNDIxOSBMNTUxLjIxMjUsNDQ5LjY3MTkgTDU0Ni4yNzUsNDQ5LjY3MTkgTDU0Ni4yNzUsNDUxLjQyMTkgWiAiIGZpbGw9IiMwMDAwMDAiLz48dGV4dCBmaWxsPSIjMDAwMDAwIiBmb250LWZhbWlseT0ic2Fucy1zZXJpZiIgZm9udC1zaXplPSIxNCIgbGVuZ3RoQWRqdXN0PSJzcGFjaW5nIiB0ZXh0TGVuZ3RoPSI0MiIgeD0iNTY4LjM1IiB5PSI0NjAuNzI2NiI+UmV2aWV3PC90ZXh0PjxsaW5lIHN0eWxlPSJzdHJva2U6IzE4MTgxODtzdHJva2Utd2lkdGg6MC41OyIgeDE9IjUwOSIgeDI9IjYzOCIgeTE9IjQ3MC45ODQ0IiB5Mj0iNDcwLjk4NDQiLz48cmVjdCBmaWxsPSJub25lIiBoZWlnaHQ9IjYiIHN0eWxlPSJzdHJva2U6I0M4MjkzMDtzdHJva2Utd2lkdGg6MTsiIHdpZHRoPSI2IiB4PSI1MTYiIHk9IjQ4MC45NzY2Ii8+PHRleHQgZmlsbD0iIzAwMDAwMCIgZm9udC1mYW1pbHk9InNhbnMtc2VyaWYiIGZvbnQtc2l6ZT0iMTQiIGxlbmd0aEFkanVzdD0ic3BhY2luZyIgdGV4dExlbmd0aD0iNDkiIHg9IjUyOCIgeT0iNDg4LjIxODgiPmlkOiBpbnQ8L3RleHQ+PHJlY3QgZmlsbD0ibm9uZSIgaGVpZ2h0PSI2IiBzdHlsZT0ic3Ryb2tlOiNDODI5MzA7c3Ryb2tlLXdpZHRoOjE7IiB3aWR0aD0iNiIgeD0iNTE2IiB5PSI0OTUuOTYwOSIvPjx0ZXh0IGZpbGw9IiMwMDAwMDAiIGZvbnQtZmFtaWx5PSJzYW5zLXNlcmlmIiBmb250LXNpemU9IjE0IiBsZW5ndGhBZGp1c3Q9InNwYWNpbmciIHRleHRMZW5ndGg9IjEwNSIgeD0iNTI4IiB5PSI1MDMuMjAzMSI+Y3VzdG9tZXJJZDogaW50PC90ZXh0PjxyZWN0IGZpbGw9Im5vbmUiIGhlaWdodD0iNiIgc3R5bGU9InN0cm9rZTojQzgyOTMwO3N0cm9rZS13aWR0aDoxOyIgd2lkdGg9IjYiIHg9IjUxNiIgeT0iNTEwLjk0NTMiLz48dGV4dCBmaWxsPSIjMDAwMDAwIiBmb250LWZhbWlseT0ic2Fucy1zZXJpZiIgZm9udC1zaXplPSIxNCIgbGVuZ3RoQWRqdXN0PSJzcGFjaW5nIiB0ZXh0TGVuZ3RoPSI5OCIgeD0iNTI4IiB5PSI1MTguMTg3NSI+cHJvZHVjdElkOiBpbnQ8L3RleHQ+PHJlY3QgZmlsbD0ibm9uZSIgaGVpZ2h0PSI2IiBzdHlsZT0ic3Ryb2tlOiNDODI5MzA7c3Ryb2tlLXdpZHRoOjE7IiB3aWR0aD0iNiIgeD0iNTE2IiB5PSI1MjUuOTI5NyIvPjx0ZXh0IGZpbGw9IiMwMDAwMDAiIGZvbnQtZmFtaWx5PSJzYW5zLXNlcmlmIiBmb250LXNpemU9IjE0IiBsZW5ndGhBZGp1c3Q9InNwYWNpbmciIHRleHRMZW5ndGg9Ijc3IiB4PSI1MjgiIHk9IjUzMy4xNzE5Ij5yYXRpbmc6IGludDwvdGV4dD48cmVjdCBmaWxsPSJub25lIiBoZWlnaHQ9IjYiIHN0eWxlPSJzdHJva2U6I0M4MjkzMDtzdHJva2Utd2lkdGg6MTsiIHdpZHRoPSI2IiB4PSI1MTYiIHk9IjU0MC45MTQxIi8+PHRleHQgZmlsbD0iIzAwMDAwMCIgZm9udC1mYW1pbHk9InNhbnMtc2VyaWYiIGZvbnQtc2l6ZT0iMTQiIGxlbmd0aEFkanVzdD0ic3BhY2luZyIgdGV4dExlbmd0aD0iMTA1IiB4PSI1MjgiIHk9IjU0OC4xNTYzIj5jb21tZW50OiBzdHJpbmc8L3RleHQ+PHJlY3QgZmlsbD0ibm9uZSIgaGVpZ2h0PSI2IiBzdHlsZT0ic3Ryb2tlOiNDODI5MzA7c3Ryb2tlLXdpZHRoOjE7IiB3aWR0aD0iNiIgeD0iNTE2IiB5PSI1NTUuODk4NCIvPjx0ZXh0IGZpbGw9IiMwMDAwMDAiIGZvbnQtZmFtaWx5PSJzYW5zLXNlcmlmIiBmb250LXNpemU9IjE0IiBsZW5ndGhBZGp1c3Q9InNwYWNpbmciIHRleHRMZW5ndGg9IjcwIiB4PSI1MjgiIHk9IjU2My4xNDA2Ij5kYXRlOiBEYXRlPC90ZXh0PjxsaW5lIHN0eWxlPSJzdHJva2U6IzE4MTgxODtzdHJva2Utd2lkdGg6MC41OyIgeDE9IjUwOSIgeDI9IjYzOCIgeTE9IjU2OC44OTA2IiB5Mj0iNTY4Ljg5MDYiLz48ZWxsaXBzZSBjeD0iNTE5IiBjeT0iNTgxLjg4MjgiIGZpbGw9IiM4NEJFODQiIHJ4PSIzIiByeT0iMyIgc3R5bGU9InN0cm9rZTojMDM4MDQ4O3N0cm9rZS13aWR0aDoxOyIvPjx0ZXh0IGZpbGw9IiMwMDAwMDAiIGZvbnQtZmFtaWx5PSJzYW5zLXNlcmlmIiBmb250LXNpemU9IjE0IiBsZW5ndGhBZGp1c3Q9InNwYWNpbmciIHRleHRMZW5ndGg9Ijk4IiB4PSI1MjgiIHk9IjU4Ni4xMjUiPnN1Ym1pdFJldmlldygpPC90ZXh0PjwvZz48IS0tcmV2ZXJzZSBsaW5rIFVzZXIgdG8gQ3VzdG9tZXItLT48ZyBjbGFzcz0ibGluayIgZGF0YS1lbnRpdHktMT0iVXNlciIgZGF0YS1lbnRpdHktMj0iQ3VzdG9tZXIiIGRhdGEtc291cmNlLWxpbmU9IjMxIiBkYXRhLXVpZD0ibG5rNSIgaWQ9ImxpbmtfVXNlcl9DdXN0b21lciI+PHBhdGggY29kZUxpbmU9IjMxIiBkPSJNMzEzLjY4NDUsMTk3LjU2MDkgQzMwMy4yOTQ1LDIyMi4xMTA5IDI5OC43NCwyMzIuODU0NCAyODguOTcsMjU1LjkzNDQiIGZpbGw9Im5vbmUiIGlkPSJVc2VyLWJhY2t0by1DdXN0b21lciIgc3R5bGU9InN0cm9rZTojMTgxODE4O3N0cm9rZS13aWR0aDoxOyIvPjxwb2x5Z29uIGZpbGw9Im5vbmUiIHBvaW50cz0iMzIwLjcsMTgwLjk4NDQsMzA4LjE1OSwxOTUuMjIyNCwzMTkuMjEsMTk5Ljg5OTQsMzIwLjcsMTgwLjk4NDQiIHN0eWxlPSJzdHJva2U6IzE4MTgxODtzdHJva2Utd2lkdGg6MTsiLz48L2c+PCEtLXJldmVyc2UgbGluayBVc2VyIHRvIEFkbWluLS0+PGcgY2xhc3M9ImxpbmsiIGRhdGEtZW50aXR5LTE9IlVzZXIiIGRhdGEtZW50aXR5LTI9IkFkbWluIiBkYXRhLXNvdXJjZS1saW5lPSIzMiIgZGF0YS11aWQ9ImxuazYiIGlkPSJsaW5rX1VzZXJfQWRtaW4iPjxwYXRoIGNvZGVMaW5lPSIzMiIgZD0iTTM4NS4zMTYsMTk3LjU2MDcgQzM5My41MDYsMjE2LjkxMDcgMzk1LjQxLDIyMS40MTQ0IDQwMy42MSwyNDAuNzc0NCIgZmlsbD0ibm9uZSIgaWQ9IlVzZXItYmFja3RvLUFkbWluIiBzdHlsZT0ic3Ryb2tlOiMxODE4MTg7c3Ryb2tlLXdpZHRoOjE7Ii8+PHBvbHlnb24gZmlsbD0ibm9uZSIgcG9pbnRzPSIzNzguMywxODAuOTg0NCwzNzkuNzkwNiwxOTkuODk5NCwzOTAuODQxNSwxOTUuMjIyLDM3OC4zLDE4MC45ODQ0IiBzdHlsZT0ic3Ryb2tlOiMxODE4MTg7c3Ryb2tlLXdpZHRoOjE7Ii8+PC9nPjwhLS1saW5rIENhdGVnb3J5IHRvIFByb2R1Y3QtLT48ZyBjbGFzcz0ibGluayIgZGF0YS1lbnRpdHktMT0iQ2F0ZWdvcnkiIGRhdGEtZW50aXR5LTI9IlByb2R1Y3QiIGRhdGEtc291cmNlLWxpbmU9IjUxIiBkYXRhLXVpZD0ibG5rOSIgaWQ9ImxpbmtfQ2F0ZWdvcnlfUHJvZHVjdCI+PHBhdGggY29kZUxpbmU9IjUxIiBkPSJNNjEyLjUsMTUxLjI0NDQgQzYxMi41LDE3Ni42NDQ0IDYxMi41LDIwNC43MDQ0IDYxMi41LDIzNC42NzQ0IiBmaWxsPSJub25lIiBpZD0iQ2F0ZWdvcnktdG8tUHJvZHVjdCIgc3R5bGU9InN0cm9rZTojMTgxODE4O3N0cm9rZS13aWR0aDoxOyIvPjxwb2x5Z29uIGZpbGw9IiMxODE4MTgiIHBvaW50cz0iNjEyLjUsMjQwLjY3NDQsNjE2LjUsMjMxLjY3NDQsNjEyLjUsMjM1LjY3NDQsNjA4LjUsMjMxLjY3NDQsNjEyLjUsMjQwLjY3NDQiIHN0eWxlPSJzdHJva2U6IzE4MTgxODtzdHJva2Utd2lkdGg6MTsiLz48dGV4dCBmaWxsPSIjMDAwMDAwIiBmb250LWZhbWlseT0ic2Fucy1zZXJpZiIgZm9udC1zaXplPSIxMyIgbGVuZ3RoQWRqdXN0PSJzcGFjaW5nIiB0ZXh0TGVuZ3RoPSI2LjUiIHg9IjYwNi4wNDQ1IiB5PSIxNzEuMTkwNyI+MTwvdGV4dD48dGV4dCBmaWxsPSIjMDAwMDAwIiBmb250LWZhbWlseT0ic2Fucy1zZXJpZiIgZm9udC1zaXplPSIxMyIgbGVuZ3RoQWRqdXN0PSJzcGFjaW5nIiB0ZXh0TGVuZ3RoPSIyNiIgeD0iNTg0Ljk5NjkiIHk9IjIzMS4yNTYyIj4wLi4qPC90ZXh0PjwvZz48IS0tbGluayBDdXN0b21lciB0byBDYXJ0LS0+PGcgY2xhc3M9ImxpbmsiIGRhdGEtZW50aXR5LTE9IkN1c3RvbWVyIiBkYXRhLWVudGl0eS0yPSJDYXJ0IiBkYXRhLXNvdXJjZS1saW5lPSI4NiIgZGF0YS11aWQ9ImxuazE0IiBpZD0ibGlua19DdXN0b21lcl9DYXJ0Ij48cGF0aCBjb2RlTGluZT0iODYiIGQ9Ik0yMjEuMjcsMzY0LjE4NDQgQzE5OS45NSwzODkuMjc0NCAxNzguMTM2MSw0MTQuOTIyOSAxNTUuMzk2MSw0NDEuNjcyOSIgZmlsbD0ibm9uZSIgaWQ9IkN1c3RvbWVyLXRvLUNhcnQiIHN0eWxlPSJzdHJva2U6IzE4MTgxODtzdHJva2Utd2lkdGg6MTsiLz48cG9seWdvbiBmaWxsPSIjMTgxODE4IiBwb2ludHM9IjE1MS41MSw0NDYuMjQ0NCwxNjAuMzg2OCw0NDEuOTc4LDE1NC43NDg0LDQ0Mi40MzQ5LDE1NC4yOTE2LDQzNi43OTY1LDE1MS41MSw0NDYuMjQ0NCIgc3R5bGU9InN0cm9rZTojMTgxODE4O3N0cm9rZS13aWR0aDoxOyIvPjx0ZXh0IGZpbGw9IiMwMDAwMDAiIGZvbnQtZmFtaWx5PSJzYW5zLXNlcmlmIiBmb250LXNpemU9IjEzIiBsZW5ndGhBZGp1c3Q9InNwYWNpbmciIHRleHRMZW5ndGg9IjYuNSIgeD0iMjA5LjEyMjYiIHk9IjM4NC4zMTMyIj4xPC90ZXh0Pjx0ZXh0IGZpbGw9IiMwMDAwMDAiIGZvbnQtZmFtaWx5PSJzYW5zLXNlcmlmIiBmb250LXNpemU9IjEzIiBsZW5ndGhBZGp1c3Q9InNwYWNpbmciIHRleHRMZW5ndGg9IjYuNSIgeD0iMTUxLjg5OTQiIHk9IjQzNi44MzQzIj4xPC90ZXh0PjwvZz48IS0tbGluayBDYXJ0IHRvIENhcnRJdGVtLS0+PGcgY2xhc3M9ImxpbmsiIGRhdGEtZW50aXR5LTE9IkNhcnQiIGRhdGEtZW50aXR5LTI9IkNhcnRJdGVtIiBkYXRhLXNvdXJjZS1saW5lPSI4NyIgZGF0YS11aWQ9ImxuazE1IiBpZD0ibGlua19DYXJ0X0NhcnRJdGVtIj48cGF0aCBjb2RlTGluZT0iODciIGQ9Ik05My41LDU4NC41MzQ0IEM5My41LDYxNi45OTQ0IDkzLjUsNjQ4LjYyNDQgOTMuNSw2NzUuOTc0NCIgZmlsbD0ibm9uZSIgaWQ9IkNhcnQtdG8tQ2FydEl0ZW0iIHN0eWxlPSJzdHJva2U6IzE4MTgxODtzdHJva2Utd2lkdGg6MTsiLz48cG9seWdvbiBmaWxsPSIjMTgxODE4IiBwb2ludHM9IjkzLjUsNjgxLjk3NDQsOTcuNSw2NzIuOTc0NCw5My41LDY3Ni45NzQ0LDg5LjUsNjcyLjk3NDQsOTMuNSw2ODEuOTc0NCIgc3R5bGU9InN0cm9rZTojMTgxODE4O3N0cm9rZS13aWR0aDoxOyIvPjx0ZXh0IGZpbGw9IiMwMDAwMDAiIGZvbnQtZmFtaWx5PSJzYW5zLXNlcmlmIiBmb250LXNpemU9IjEzIiBsZW5ndGhBZGp1c3Q9InNwYWNpbmciIHRleHRMZW5ndGg9IjI2IiB4PSI2NC45NDA2IiB5PSI2NzIuMzk2NyI+MC4uKjwvdGV4dD48L2c+PCEtLWxpbmsgT3JkZXIgdG8gT3JkZXJJdGVtLS0+PGcgY2xhc3M9ImxpbmsiIGRhdGEtZW50aXR5LTE9Ik9yZGVyIiBkYXRhLWVudGl0eS0yPSJPcmRlckl0ZW0iIGRhdGEtc291cmNlLWxpbmU9Ijg4IiBkYXRhLXVpZD0ibG5rMTYiIGlkPSJsaW5rX09yZGVyX09yZGVySXRlbSI+PHBhdGggY29kZUxpbmU9Ijg4IiBkPSJNMjk1LjQ1LDU5Mi4yNjQ0IEMyOTEuNzksNjE5LjgzNDQgMjg4LjU2MDIsNjQ0LjE4NjYgMjg1LjM1MDIsNjY4LjM0NjYiIGZpbGw9Im5vbmUiIGlkPSJPcmRlci10by1PcmRlckl0ZW0iIHN0eWxlPSJzdHJva2U6IzE4MTgxODtzdHJva2Utd2lkdGg6MTsiLz48cG9seWdvbiBmaWxsPSIjMTgxODE4IiBwb2ludHM9IjI4NC41Niw2NzQuMjk0NCwyODkuNzEwNSw2NjUuODk5NiwyODUuMjE4NSw2NjkuMzM3OSwyODEuNzgwMiw2NjQuODQ1OSwyODQuNTYsNjc0LjI5NDQiIHN0eWxlPSJzdHJva2U6IzE4MTgxODtzdHJva2Utd2lkdGg6MTsiLz48dGV4dCBmaWxsPSIjMDAwMDAwIiBmb250LWZhbWlseT0ic2Fucy1zZXJpZiIgZm9udC1zaXplPSIxMyIgbGVuZ3RoQWRqdXN0PSJzcGFjaW5nIiB0ZXh0TGVuZ3RoPSIyNiIgeD0iMjU3LjQxMDYiIHk9IjY2NC44NTM0Ij4xLi4qPC90ZXh0PjwvZz48IS0tbGluayBDdXN0b21lciB0byBPcmRlci0tPjxnIGNsYXNzPSJsaW5rIiBkYXRhLWVudGl0eS0xPSJDdXN0b21lciIgZGF0YS1lbnRpdHktMj0iT3JkZXIiIGRhdGEtc291cmNlLWxpbmU9Ijg5IiBkYXRhLXVpZD0ibG5rMTciIGlkPSJsaW5rX0N1c3RvbWVyX09yZGVyIj48cGF0aCBjb2RlTGluZT0iODkiIGQ9Ik0yNzYuNywzNjQuMTg0NCBDMjgxLjA1LDM4Ni45MTQ0IDI4NS4wOTE5LDQwNy45NzE0IDI4OS44MzE5LDQzMi43MzE0IiBmaWxsPSJub25lIiBpZD0iQ3VzdG9tZXItdG8tT3JkZXIiIHN0eWxlPSJzdHJva2U6IzE4MTgxODtzdHJva2Utd2lkdGg6MTsiLz48cG9seWdvbiBmaWxsPSIjMTgxODE4IiBwb2ludHM9IjI5MC45Niw0MzguNjI0NCwyOTMuMTk2NCw0MjkuMDMyOCwyOTAuMDE5OSw0MzMuNzEzNiwyODUuMzM5MSw0MzAuNTM3LDI5MC45Niw0MzguNjI0NCIgc3R5bGU9InN0cm9rZTojMTgxODE4O3N0cm9rZS13aWR0aDoxOyIvPjx0ZXh0IGZpbGw9IiMwMDAwMDAiIGZvbnQtZmFtaWx5PSJzYW5zLXNlcmlmIiBmb250LXNpemU9IjEzIiBsZW5ndGhBZGp1c3Q9InNwYWNpbmciIHRleHRMZW5ndGg9IjYuNSIgeD0iMjcxLjY1NDUiIHk9IjM4NC4zMTMyIj4xPC90ZXh0Pjx0ZXh0IGZpbGw9IiMwMDAwMDAiIGZvbnQtZmFtaWx5PSJzYW5zLXNlcmlmIiBmb250LXNpemU9IjEzIiBsZW5ndGhBZGp1c3Q9InNwYWNpbmciIHRleHRMZW5ndGg9IjI2IiB4PSIyNjIuMTE5OSIgeT0iNDI5LjM2OTciPjAuLio8L3RleHQ+PC9nPjwhLS1saW5rIE9yZGVyIHRvIFBheW1lbnQtLT48ZyBjbGFzcz0ibGluayIgZGF0YS1lbnRpdHktMT0iT3JkZXIiIGRhdGEtZW50aXR5LTI9IlBheW1lbnQiIGRhdGEtc291cmNlLWxpbmU9IjEwMyIgZGF0YS11aWQ9ImxuazE5IiBpZD0ibGlua19PcmRlcl9QYXltZW50Ij48cGF0aCBjb2RlTGluZT0iMTAzIiBkPSJNMzYzLjk2LDU5Mi4yNjQ0IEMzNzkuMDQsNjExLjgxNDQgMzkxLjUxNDgsNjI3Ljk4NCA0MDYuMjc0OCw2NDcuMTE0IiBmaWxsPSJub25lIiBpZD0iT3JkZXItdG8tUGF5bWVudCIgc3R5bGU9InN0cm9rZTojMTgxODE4O3N0cm9rZS13aWR0aDoxOyIvPjxwb2x5Z29uIGZpbGw9IiMxODE4MTgiIHBvaW50cz0iNDA5Ljk0LDY1MS44NjQ0LDQwNy42MDkxLDY0Mi4yOTUzLDQwNi44ODU2LDY0Ny45MDU3LDQwMS4yNzUyLDY0Ny4xODIzLDQwOS45NCw2NTEuODY0NCIgc3R5bGU9InN0cm9rZTojMTgxODE4O3N0cm9rZS13aWR0aDoxOyIvPjx0ZXh0IGZpbGw9IiMwMDAwMDAiIGZvbnQtZmFtaWx5PSJzYW5zLXNlcmlmIiBmb250LXNpemU9IjEzIiBsZW5ndGhBZGp1c3Q9InNwYWNpbmciIHRleHRMZW5ndGg9IjYuNSIgeD0iMzYzLjA5NTgiIHk9IjYxMi4yNzgiPjE8L3RleHQ+PHRleHQgZmlsbD0iIzAwMDAwMCIgZm9udC1mYW1pbHk9InNhbnMtc2VyaWYiIGZvbnQtc2l6ZT0iMTMiIGxlbmd0aEFkanVzdD0ic3BhY2luZyIgdGV4dExlbmd0aD0iNi41IiB4PSIzOTcuNTQ0OCIgeT0iNjQyLjQ2ODEiPjE8L3RleHQ+PC9nPjwhLS1saW5rIEN1c3RvbWVyIHRvIFJldmlldy0tPjxnIGNsYXNzPSJsaW5rIiBkYXRhLWVudGl0eS0xPSJDdXN0b21lciIgZGF0YS1lbnRpdHktMj0iUmV2aWV3IiBkYXRhLXNvdXJjZS1saW5lPSIxMTgiIGRhdGEtdWlkPSJsbmsyMSIgaWQ9ImxpbmtfQ3VzdG9tZXJfUmV2aWV3Ij48cGF0aCBjb2RlTGluZT0iMTE4IiBkPSJNMzI5LjY4LDM2NC4yNzQ0IEMzMzYuMjcsMzY5LjM3NDQgMzQyLjk2LDM3NC4zNjQ0IDM0OS41LDM3OC45ODQ0IEM0MDAuOTEsNDE1LjMxNDQgNDU3LjA0MTgsNDQ5LjAxNTMgNTAyLjUzMTgsNDc1LjAzNTMiIGZpbGw9Im5vbmUiIGlkPSJDdXN0b21lci10by1SZXZpZXciIHN0eWxlPSJzdHJva2U6IzE4MTgxODtzdHJva2Utd2lkdGg6MTsiLz48cG9seWdvbiBmaWxsPSIjMTgxODE4IiBwb2ludHM9IjUwNy43NCw0NzguMDE0NCw1MDEuOTEzNyw0NzAuMDczNyw1MDMuMzk5OCw0NzUuNTMxOCw0OTcuOTQxNyw0NzcuMDE3OSw1MDcuNzQsNDc4LjAxNDQiIHN0eWxlPSJzdHJva2U6IzE4MTgxODtzdHJva2Utd2lkdGg6MTsiLz48dGV4dCBmaWxsPSIjMDAwMDAwIiBmb250LWZhbWlseT0ic2Fucy1zZXJpZiIgZm9udC1zaXplPSIxMyIgbGVuZ3RoQWRqdXN0PSJzcGFjaW5nIiB0ZXh0TGVuZ3RoPSI2LjUiIHg9IjMzMS4wNDQ5IiB5PSIzODQuMDMxNyI+MTwvdGV4dD48dGV4dCBmaWxsPSIjMDAwMDAwIiBmb250LWZhbWlseT0ic2Fucy1zZXJpZiIgZm9udC1zaXplPSIxMyIgbGVuZ3RoQWRqdXN0PSJzcGFjaW5nIiB0ZXh0TGVuZ3RoPSIyNiIgeD0iNDczLjk4NzEiIHk9IjQ3My4wMjU1Ij4wLi4qPC90ZXh0PjwvZz48IS0tbGluayBQcm9kdWN0IHRvIFJldmlldy0tPjxnIGNsYXNzPSJsaW5rIiBkYXRhLWVudGl0eS0xPSJQcm9kdWN0IiBkYXRhLWVudGl0eS0yPSJSZXZpZXciIGRhdGEtc291cmNlLWxpbmU9IjExOSIgZGF0YS11aWQ9ImxuazIyIiBpZD0ibGlua19Qcm9kdWN0X1JldmlldyI+PHBhdGggY29kZUxpbmU9IjExOSIgZD0iTTU5OS40NiwzNzkuMDM0NCBDNTk1Ljc4LDM5OC4yMTQ0IDU5Mi44ODc1LDQxMy4zMDEzIDU4OS4xMzc1LDQzMi45MDEzIiBmaWxsPSJub25lIiBpZD0iUHJvZHVjdC10by1SZXZpZXciIHN0eWxlPSJzdHJva2U6IzE4MTgxODtzdHJva2Utd2lkdGg6MTsiLz48cG9seWdvbiBmaWxsPSIjMTgxODE4IiBwb2ludHM9IjU4OC4wMSw0MzguNzk0NCw1OTMuNjMsNDMwLjcwNjQsNTg4Ljk0OTYsNDMzLjg4MzUsNTg1Ljc3MjUsNDI5LjIwMyw1ODguMDEsNDM4Ljc5NDQiIHN0eWxlPSJzdHJva2U6IzE4MTgxODtzdHJva2Utd2lkdGg6MTsiLz48dGV4dCBmaWxsPSIjMDAwMDAwIiBmb250LWZhbWlseT0ic2Fucy1zZXJpZiIgZm9udC1zaXplPSIxMyIgbGVuZ3RoQWRqdXN0PSJzcGFjaW5nIiB0ZXh0TGVuZ3RoPSI2LjUiIHg9IjU5MS44MzE3IiB5PSIzOTkuMTY2NSI+MTwvdGV4dD48dGV4dCBmaWxsPSIjMDAwMDAwIiBmb250LWZhbWlseT0ic2Fucy1zZXJpZiIgZm9udC1zaXplPSIxMyIgbGVuZ3RoQWRqdXN0PSJzcGFjaW5nIiB0ZXh0TGVuZ3RoPSIyNiIgeD0iNTYyLjE2NTciIHk9IjQyOS41NTcyIj4wLi4qPC90ZXh0PjwvZz48IS0tU1JDPVtkTEpSUlhDbjQ3dFZoeDNvMDJ0TExrS3JBZkxBQWdIODUxMmI3cDNyM2VrNUJ5N3M5ZWcwVnNUeXNPc3RaTGdCRjZuc1otVG9QaXZ1bEYwSXNLZzJTLW42RzZ6MWlQUHo2QUhhVHRsZEtSNkpKdThpTmg3dDJGZ3FRTHdfVS11TlpqY3pHLWpVQ2tHblBKMWJsbmo2RUtNdFA0QngtQXYxdVA4dlJ1Tms4dTBBWDltWDZ0QlY2VGlMdTFjSmZYVnd2M0ktTS1tNTVNM2Z5cy1KcXdxNnZ1dEFBU19PSFdCN3B4UUJIVzV1aTZSZHkxUnJhMDY5aUNNbGsxTXVvdVcyM0pyVVNzdTZ4U2xPcnZxSUVXVTZobGpZSkpUbWR4czZKR1NVdnZYNVBSUUZpMUd6RFowWjhOTWFNMEE5YUtsZk9teWxfeEpqTDV1MUhMUExnY0tZZkZJQWdGUjZ4a2lhN0ZxZ0xFcEdTSWlzTlhXenJ6OEFKZlJWZk83YUlNTm1kdVQwRjFEUXYtMDdGVkYxSXlkOU9KOVRsNXNtamhyWVl1bHB5cFVCYU52TFlyUFdHdC1ZNzdORFlIdkZvVjRpckJoMDE1cXNqc0dWUU1XbFd6a1FsZ182UUdlVml4NGYwNHYzUWVGN1JEOXBYOW55YXdlaXlfcVFHN2xYenV6UTZlbHgzeWhIUi1KU0NjeXlvQmNhdTBTdGt3cVM5MXlhd1Y4ajZDemtvYnNxQldrUXVqVE16NkltbVgyQ3p0eVEwbGVGaE1nWUtDTE9aRnJoS1otSVJKb1BZMW85VGQ2bWdCanBpNVQ4TkVpa01aOC1lZXM5YjBlMExEWEVweE9fUkQwT3huUnozcERWZXpIUlppeGJYNGM1cjhVb1JvRnZjYUJKbWdnaEN6Yk1aazJIQ1IzV2dQMzJwUVowU3h3OVFDUU14OFFVaU0wdEYyWlhmcHJfVDVBSWpoY0dTVWFURlZxN10tLT48L2c+PC9zdmc+;" vertex="1" parent="WIyWlLk6GJQsqaUBKTNV-1">
            <mxGeometry x="60" width="699" height="796" as="geometry" />
          </mxCell>
        </UserObject>
      </root>
    </mxGraphModel>
  </diagram>
</mxfile>
